<svg width="602" height="464" viewBox="0 0 602 464" fill="none" xmlns="http://www.w3.org/2000/svg">
<path d="M527.597 377.236L64.0437 363.941C53.6211 363.652 43.6615 359.569 36.0308 352.457C28.4002 345.345 23.622 335.693 22.5914 325.308L0.215978 104.036C-0.379733 98.1134 0.260145 92.1312 2.09506 86.4687C3.92997 80.8063 6.91993 75.587 10.8755 71.1414C14.8311 66.6959 19.6661 63.1211 25.0741 60.6435C30.4822 58.166 36.3454 56.8396 42.2924 56.7484L558.263 49.6106C564.399 49.5276 570.481 50.7606 576.101 53.2268C581.721 55.6929 586.748 59.335 590.844 63.9081C594.94 68.4811 598.01 73.8791 599.848 79.7389C601.686 85.5987 602.249 91.7844 601.498 97.88L571.456 339.584C570.117 350.188 564.886 359.915 556.78 366.874C548.674 373.833 538.273 377.526 527.597 377.236Z" fill="#EAF9F3"/>
<mask id="mask0_10_2159" style="mask-type:luminance" maskUnits="userSpaceOnUse" x="0" y="49" width="602" height="329">
<path d="M527.597 377.236L64.0437 363.941C53.6211 363.652 43.6615 359.569 36.0308 352.457C28.4002 345.345 23.622 335.693 22.5914 325.308L0.215978 104.036C-0.379733 98.1134 0.260145 92.1312 2.09506 86.4687C3.92997 80.8063 6.91993 75.587 10.8755 71.1414C14.8311 66.6959 19.6661 63.1211 25.0741 60.6435C30.4822 58.166 36.3454 56.8396 42.2924 56.7484L558.263 49.6106C564.399 49.5276 570.481 50.7606 576.101 53.2268C581.721 55.6929 586.748 59.335 590.844 63.9081C594.94 68.4811 598.01 73.8791 599.848 79.7389C601.686 85.5987 602.249 91.7844 601.498 97.88L571.456 339.584C570.117 350.188 564.886 359.915 556.78 366.874C548.674 373.833 538.273 377.526 527.597 377.236Z" fill="white"/>
</mask>
<g mask="url(#mask0_10_2159)">
<path d="M388.799 387.764L390.403 423.899C390.403 427.448 388.994 430.853 386.487 433.362C383.979 435.872 380.578 437.282 377.031 437.282H6.54526C2.99885 437.282 -0.402297 435.872 -2.90998 433.362C-5.41767 430.853 -6.82648 427.448 -6.82648 423.899V213.602C-6.82648 210.052 -5.41767 206.648 -2.90998 204.138C-0.402297 201.628 2.99885 200.218 6.54526 200.218H376.942C380.489 200.218 383.89 201.628 386.398 204.138C388.905 206.648 390.314 210.052 390.314 213.602V355.822" stroke="#B8D8C7" stroke-width="1.8" stroke-linecap="round" stroke-linejoin="round"/>
<path d="M471.793 356.714V149.629C471.793 146.08 473.201 142.675 475.709 140.166C478.217 137.656 481.618 136.246 485.164 136.246H595.704C599.25 136.246 602.652 137.656 605.159 140.166C607.667 142.675 609.076 146.08 609.076 149.629V456.822C609.076 460.372 607.667 463.776 605.159 466.286C602.652 468.795 599.25 470.205 595.704 470.205H485.164C481.618 470.205 478.217 468.795 475.709 466.286C473.201 463.776 471.793 460.372 471.793 456.822V389.994" stroke="#B8D8C7" stroke-width="1.8" stroke-linecap="round" stroke-linejoin="round"/>
<path d="M76.1674 137.495H-3.97382V129.554H76.1674C76.3785 129.553 76.5877 129.594 76.7829 129.674C76.9781 129.754 77.1555 129.872 77.3047 130.022C77.454 130.171 77.5721 130.349 77.6523 130.544C77.7325 130.739 77.7732 130.949 77.7721 131.16V135.8C77.7896 136.019 77.7609 136.24 77.6877 136.447C77.6145 136.655 77.4984 136.845 77.3471 137.005C77.1958 137.165 77.0125 137.291 76.8093 137.375C76.6061 137.46 76.3874 137.5 76.1674 137.495Z" stroke="#B8D8C7" stroke-width="1.8" stroke-linecap="round" stroke-linejoin="round"/>
<path d="M63.9546 200.218H45.8582C44.9154 200.221 44.0044 199.877 43.2979 199.252C42.5914 198.627 42.1385 197.765 42.025 196.828L40.5987 183.98C40.5399 183.441 40.5951 182.895 40.7609 182.379C40.9267 181.862 41.1992 181.387 41.5608 180.983C41.9224 180.579 42.3649 180.255 42.8596 180.034C43.3543 179.812 43.89 179.698 44.4319 179.697H65.381C65.9225 179.699 66.4575 179.815 66.9515 180.037C67.4455 180.259 67.8875 180.582 68.2488 180.986C68.6101 181.389 68.8827 181.864 69.049 182.38C69.2153 182.896 69.2716 183.441 69.2142 183.98L67.7879 196.828C67.6878 197.77 67.2388 198.641 66.5293 199.268C65.8198 199.896 64.9013 200.235 63.9546 200.218Z" stroke="#B8D8C7" stroke-width="1.8" stroke-linecap="round" stroke-linejoin="round"/>
<path d="M52.8115 179.786C52.8115 179.786 45.6799 179.072 44.2536 169.436C44.2536 169.436 50.672 171.31 52.7224 175.86C52.7224 175.86 53.6138 165.689 58.4276 164.708C58.4276 164.708 60.5671 172.292 57.1796 176.039C57.1796 176.039 59.7648 171.756 66.3615 171.845C65.7382 173.725 64.665 175.422 63.2355 176.791C61.8059 178.16 60.0635 179.157 58.1602 179.697" fill="#B8D8C7"/>
<path d="M550.775 136.246H532.678C531.736 136.248 530.825 135.904 530.118 135.279C529.412 134.655 528.959 133.792 528.845 132.855L527.419 120.007C527.36 119.468 527.415 118.922 527.581 118.406C527.747 117.89 528.019 117.414 528.381 117.01C528.743 116.606 529.185 116.283 529.68 116.061C530.175 115.84 530.71 115.725 531.252 115.724H552.201C552.743 115.726 553.278 115.842 553.772 116.064C554.266 116.286 554.708 116.609 555.069 117.013C555.43 117.417 555.703 117.892 555.869 118.408C556.036 118.923 556.092 119.468 556.034 120.007L554.608 132.855C554.495 133.792 554.042 134.655 553.335 135.279C552.629 135.904 551.718 136.248 550.775 136.246Z" stroke="#B8D8C7" stroke-width="1.8" stroke-linecap="round" stroke-linejoin="round"/>
<path d="M539.543 115.814C539.543 115.814 532.411 115.1 530.985 105.464C530.985 105.464 537.403 107.338 539.454 111.888C539.454 111.888 540.345 101.717 545.159 100.735C545.159 100.735 547.298 108.319 543.911 112.066C543.911 112.066 546.496 107.784 553.093 107.873C552.469 109.752 551.396 111.45 549.967 112.819C548.537 114.187 546.795 115.185 544.891 115.724" fill="#B8D8C7"/>
<path d="M374.179 244.562H293.77C292.779 244.555 291.831 244.158 291.13 243.456C290.43 242.755 290.033 241.806 290.026 240.814V216.367C290.033 215.376 290.43 214.427 291.13 213.725C291.831 213.024 292.779 212.627 293.77 212.62H374.179C375.17 212.627 376.118 213.024 376.819 213.725C377.519 214.427 377.916 215.376 377.923 216.367V240.814C377.916 241.806 377.519 242.755 376.819 243.456C376.118 244.158 375.17 244.555 374.179 244.562Z" stroke="#B8D8C7" stroke-width="1.8" stroke-linecap="round" stroke-linejoin="round"/>
<path d="M343.156 221.275H324.614C324.262 221.266 323.928 221.122 323.679 220.873C323.43 220.624 323.286 220.288 323.277 219.936C323.286 219.584 323.43 219.249 323.679 219C323.928 218.751 324.262 218.607 324.614 218.598H343.156C343.508 218.607 343.843 218.751 344.092 219C344.341 219.249 344.485 219.584 344.494 219.936C344.497 220.113 344.465 220.289 344.399 220.453C344.333 220.617 344.235 220.766 344.11 220.891C343.985 221.016 343.836 221.114 343.672 221.18C343.509 221.246 343.333 221.278 343.156 221.275Z" fill="#B8D8C7"/>
<path d="M374.179 285.515H293.77C292.779 285.508 291.831 285.111 291.13 284.41C290.43 283.708 290.033 282.759 290.026 281.768V257.321C290.033 256.329 290.43 255.38 291.13 254.679C291.831 253.977 292.779 253.58 293.77 253.573H374.179C375.17 253.58 376.118 253.977 376.819 254.679C377.519 255.38 377.916 256.329 377.923 257.321V281.768C377.916 282.759 377.519 283.708 376.819 284.41C376.118 285.111 375.17 285.508 374.179 285.515Z" stroke="#B8D8C7" stroke-width="1.8" stroke-linecap="round" stroke-linejoin="round"/>
<path d="M343.156 262.139H324.614C324.262 262.13 323.928 261.986 323.679 261.737C323.43 261.488 323.286 261.152 323.277 260.8C323.286 260.448 323.43 260.113 323.679 259.864C323.928 259.615 324.262 259.471 324.614 259.462H343.156C343.508 259.471 343.843 259.615 344.092 259.864C344.341 260.113 344.485 260.448 344.494 260.8C344.497 260.977 344.465 261.153 344.399 261.317C344.333 261.481 344.235 261.63 344.11 261.755C343.985 261.88 343.836 261.978 343.672 262.044C343.509 262.11 343.333 262.142 343.156 262.139Z" fill="#B8D8C7"/>
<path d="M271.662 244.562H191.253C190.263 244.555 189.314 244.158 188.614 243.456C187.913 242.755 187.516 241.806 187.509 240.814V216.367C187.516 215.376 187.913 214.427 188.614 213.725C189.314 213.024 190.263 212.627 191.253 212.62H271.662C272.653 212.627 273.601 213.024 274.302 213.725C275.003 214.427 275.399 215.376 275.406 216.367V240.814C275.399 241.806 275.003 242.755 274.302 243.456C273.601 244.158 272.653 244.555 271.662 244.562Z" stroke="#B8D8C7" stroke-width="1.8" stroke-linecap="round" stroke-linejoin="round"/>
<path d="M240.729 221.275H222.187C221.835 221.266 221.5 221.122 221.251 220.873C221.002 220.624 220.859 220.288 220.85 219.936C220.859 219.584 221.002 219.249 221.251 219C221.5 218.751 221.835 218.607 222.187 218.598H240.729C241.081 218.607 241.416 218.751 241.664 219C241.913 219.249 242.057 219.584 242.066 219.936C242.057 220.288 241.913 220.624 241.664 220.873C241.416 221.122 241.081 221.266 240.729 221.275Z" fill="#B8D8C7"/>
<path d="M271.662 285.515H191.253C190.263 285.508 189.314 285.111 188.614 284.41C187.913 283.708 187.516 282.759 187.509 281.768V257.321C187.516 256.329 187.913 255.38 188.614 254.679C189.314 253.977 190.263 253.58 191.253 253.573H271.662C272.653 253.58 273.601 253.977 274.302 254.679C275.003 255.38 275.399 256.329 275.406 257.321V281.768C275.399 282.759 275.003 283.708 274.302 284.41C273.601 285.111 272.653 285.508 271.662 285.515Z" stroke="#B8D8C7" stroke-width="1.8" stroke-linecap="round" stroke-linejoin="round"/>
<path d="M240.729 262.139H222.187C221.835 262.13 221.5 261.986 221.251 261.737C221.002 261.488 220.859 261.152 220.85 260.8C220.859 260.448 221.002 260.113 221.251 259.864C221.5 259.615 221.835 259.471 222.187 259.462H240.729C241.081 259.471 241.416 259.615 241.664 259.864C241.913 260.113 242.057 260.448 242.066 260.8C242.057 261.152 241.913 261.488 241.664 261.737C241.416 261.986 241.081 262.13 240.729 262.139Z" fill="#B8D8C7"/>
<path d="M374.179 325.487H293.77C292.779 325.48 291.831 325.082 291.13 324.381C290.43 323.68 290.033 322.731 290.026 321.739V297.292C290.033 296.301 290.43 295.351 291.13 294.65C291.831 293.949 292.779 293.552 293.77 293.545H374.179C375.17 293.552 376.118 293.949 376.819 294.65C377.519 295.351 377.916 296.301 377.923 297.292V321.739C377.916 322.731 377.519 323.68 376.819 324.381C376.118 325.082 375.17 325.48 374.179 325.487Z" stroke="#B8D8C7" stroke-width="1.8" stroke-linecap="round" stroke-linejoin="round"/>
<path d="M343.156 302.2H324.614C324.262 302.19 323.928 302.047 323.679 301.797C323.43 301.548 323.286 301.213 323.277 300.861C323.286 300.509 323.43 300.174 323.679 299.925C323.928 299.676 324.262 299.532 324.614 299.523H343.156C343.508 299.532 343.843 299.676 344.092 299.925C344.341 300.174 344.485 300.509 344.494 300.861C344.497 301.038 344.465 301.214 344.399 301.378C344.333 301.542 344.235 301.691 344.11 301.816C343.985 301.941 343.836 302.039 343.672 302.105C343.509 302.171 343.333 302.203 343.156 302.2Z" fill="#B8D8C7"/>
<path d="M271.662 325.487H191.253C190.263 325.48 189.314 325.082 188.614 324.381C187.913 323.68 187.516 322.731 187.509 321.739V297.292C187.516 296.301 187.913 295.351 188.614 294.65C189.314 293.949 190.263 293.552 191.253 293.545H271.662C272.653 293.552 273.601 293.949 274.302 294.65C275.003 295.351 275.399 296.301 275.406 297.292V321.739C275.399 322.731 275.003 323.68 274.302 324.381C273.601 325.082 272.653 325.48 271.662 325.487Z" stroke="#B8D8C7" stroke-width="1.8" stroke-linecap="round" stroke-linejoin="round"/>
<path d="M240.729 302.2H222.187C221.835 302.19 221.5 302.047 221.251 301.797C221.002 301.548 220.859 301.213 220.85 300.861C220.859 300.509 221.002 300.174 221.251 299.925C221.5 299.676 221.835 299.532 222.187 299.523H240.729C241.081 299.532 241.416 299.676 241.664 299.925C241.913 300.174 242.057 300.509 242.066 300.861C242.057 301.213 241.913 301.548 241.664 301.797C241.416 302.047 241.081 302.19 240.729 302.2Z" fill="#B8D8C7"/>
<path d="M633.323 229.751H490.78C489.696 229.739 488.66 229.303 487.894 228.536C487.127 227.769 486.691 226.732 486.68 225.647V154.536C486.691 153.451 487.127 152.414 487.894 151.647C488.66 150.88 489.696 150.444 490.78 150.432H633.323C634.407 150.444 635.443 150.88 636.21 151.647C636.976 152.414 637.412 153.451 637.424 154.536V225.647C637.432 226.188 637.332 226.725 637.129 227.227C636.926 227.729 636.624 228.185 636.241 228.568C635.859 228.95 635.403 229.252 634.902 229.456C634.401 229.659 633.864 229.759 633.323 229.751Z" stroke="#B8D8C7" stroke-width="1.8" stroke-linecap="round" stroke-linejoin="round"/>
<path d="M633.323 318.081H490.78C489.696 318.069 488.66 317.633 487.894 316.866C487.127 316.099 486.691 315.062 486.68 313.977V242.867C486.691 241.782 487.127 240.744 487.894 239.977C488.66 239.21 489.696 238.774 490.78 238.762H633.323C634.407 238.774 635.443 239.21 636.21 239.977C636.976 240.744 637.412 241.782 637.424 242.867V313.977C637.425 314.516 637.32 315.05 637.114 315.549C636.908 316.047 636.606 316.5 636.225 316.882C635.844 317.263 635.392 317.565 634.894 317.771C634.396 317.977 633.862 318.082 633.323 318.081Z" stroke="#B8D8C7" stroke-width="1.8" stroke-linecap="round" stroke-linejoin="round"/>
<path d="M522.873 184.872H514.047V229.751H522.873V184.872Z" stroke="#B8D8C7" stroke-width="1.8" stroke-linecap="round" stroke-linejoin="round"/>
<path d="M531.965 197.185H522.783V229.84H531.965V197.185Z" stroke="#B8D8C7" stroke-width="1.8" stroke-linecap="round" stroke-linejoin="round"/>
<path d="M43.8969 84.6751H35.0716V129.554H43.8969V84.6751Z" stroke="#B8D8C7" stroke-width="1.8" stroke-linecap="round" stroke-linejoin="round"/>
<path d="M52.9898 96.8986H43.8079V129.554H52.9898V96.8986Z" stroke="#B8D8C7" stroke-width="1.8" stroke-linecap="round" stroke-linejoin="round"/>
<path d="M25.8897 103.323H17.0644V129.554H25.8897V103.323Z" stroke="#B8D8C7" stroke-width="1.8" stroke-linecap="round" stroke-linejoin="round"/>
<path d="M35.0716 77.002H25.8897V129.465H35.0716V77.002Z" stroke="#B8D8C7" stroke-width="1.8" stroke-linecap="round" stroke-linejoin="round"/>
<path d="M517.345 279.091L518.326 265.797C518.345 265.589 518.32 265.379 518.252 265.181C518.183 264.984 518.074 264.803 517.931 264.651C517.787 264.499 517.613 264.38 517.42 264.3C517.227 264.221 517.019 264.183 516.811 264.191H509.233C509.027 264.192 508.823 264.234 508.634 264.317C508.444 264.399 508.274 264.519 508.132 264.669C507.99 264.819 507.88 264.996 507.809 265.19C507.738 265.384 507.707 265.59 507.718 265.797L508.698 279.091C508.698 279.091 500.675 284.266 500.765 288.548C500.854 291.85 502.815 307.642 503.706 314.601C503.82 315.538 504.273 316.401 504.979 317.026C505.686 317.651 506.597 317.994 507.54 317.992H518.594C519.536 317.994 520.447 317.651 521.154 317.026C521.86 316.401 522.313 315.538 522.427 314.601C523.318 307.642 525.279 291.85 525.369 288.548C525.369 284.266 517.345 279.091 517.345 279.091Z" fill="#B8D8C7"/>
<path d="M560.313 190.85L561.294 177.556C561.313 177.348 561.288 177.138 561.219 176.94C561.151 176.743 561.042 176.562 560.899 176.41C560.755 176.258 560.581 176.139 560.388 176.059C560.195 175.98 559.987 175.943 559.778 175.95H552.112C551.906 175.951 551.702 175.993 551.512 176.076C551.323 176.158 551.152 176.278 551.011 176.428C550.869 176.578 550.759 176.755 550.688 176.949C550.617 177.143 550.586 177.349 550.596 177.556L551.577 190.85C551.577 190.85 543.554 196.025 543.643 200.307C543.732 203.609 545.694 219.401 546.585 226.36C546.698 227.297 547.151 228.16 547.858 228.785C548.564 229.41 549.475 229.753 550.418 229.751H561.472C562.415 229.753 563.326 229.41 564.033 228.785C564.739 228.16 565.192 227.297 565.305 226.36C566.197 219.401 568.158 203.609 568.247 200.307C568.336 196.025 560.313 190.85 560.313 190.85Z" fill="#B8D8C7"/>
<path d="M5.29724 351.629L631.986 358.499" stroke="#B8D8C7" stroke-width="1.8" stroke-linecap="round" stroke-linejoin="round"/>
</g>
<path d="M335.222 34.0859C331.746 41.4914 323.723 46.3986 318.107 44.8818C313.204 43.5435 312.312 37.744 315.432 31.9446C318.463 26.4128 324.525 21.9516 329.785 21.8624C335.579 21.684 338.432 27.0373 335.222 34.0859Z" fill="#F8AB5D"/>
<path d="M333.529 32.5691C330.052 39.9746 322.029 44.8818 316.413 43.365C311.51 42.0267 310.619 36.2272 313.739 30.4278C316.77 24.896 322.831 20.4349 328.091 20.3456C333.885 20.1672 336.738 25.5205 333.529 32.5691Z" fill="#FFE779"/>
<path d="M330.676 32.2122C328.091 37.744 322.029 41.4914 317.75 40.5099C313.917 39.6177 313.025 35.1566 315.432 30.6062C317.75 26.2343 322.653 22.7546 326.665 22.7546C331.211 22.8439 333.172 26.9481 330.676 32.2122Z" fill="#F8AB5D"/>
<path d="M319.087 36.941L319.444 36.3165C319.533 36.0488 319.533 35.8704 319.355 35.7811C318.96 35.7054 318.61 35.4821 318.374 35.1566C318.285 35.0674 318.285 34.7997 318.463 34.532L318.552 34.4428C318.731 34.1751 319.087 34.0859 319.176 34.2644C319.485 34.5928 319.892 34.812 320.335 34.8889C320.792 34.9542 321.258 34.8673 321.661 34.6416C322.063 34.4159 322.381 34.0639 322.564 33.6398C322.665 33.4778 322.732 33.2966 322.76 33.1074C322.788 32.9183 322.777 32.7254 322.726 32.541C322.676 32.3565 322.588 32.1845 322.468 32.0358C322.348 31.8871 322.199 31.7649 322.029 31.6769C321.793 31.5623 321.584 31.398 321.416 31.1953C321.249 30.9925 321.128 30.7561 321.06 30.5021C320.992 30.248 320.98 29.9824 321.024 29.7232C321.068 29.464 321.168 29.2174 321.316 29.0002C321.566 28.4698 321.939 28.0069 322.405 27.65C322.87 27.293 323.413 27.0524 323.99 26.9481C324.168 26.9481 324.347 26.7697 324.525 26.502L324.882 25.8774C324.927 25.748 325.012 25.6358 325.123 25.5559C325.235 25.4761 325.368 25.4326 325.506 25.4313C325.684 25.4313 325.773 25.6098 325.684 25.8774L325.417 26.4128C325.327 26.6805 325.327 26.8589 325.595 26.8589C325.889 26.9044 326.166 27.0276 326.397 27.2158C326.575 27.305 326.486 27.5727 326.308 27.8403L326.219 27.9296C326.041 28.1972 325.684 28.2865 325.595 28.108C325.289 27.8703 324.912 27.7443 324.525 27.7511C324.12 27.7251 323.716 27.8218 323.366 28.0286C323.016 28.2355 322.737 28.543 322.564 28.911C322.207 29.6248 322.475 30.0709 323.277 30.6955C323.524 30.8365 323.738 31.0281 323.905 31.2577C324.072 31.4873 324.189 31.7497 324.248 32.0277C324.307 32.3057 324.307 32.5931 324.247 32.8709C324.187 33.1487 324.069 33.4107 323.901 33.6398C323.62 34.2336 323.196 34.7483 322.667 35.1376C322.138 35.5269 321.52 35.7787 320.87 35.8704C320.748 35.8874 320.634 35.9382 320.539 36.017C320.445 36.0959 320.374 36.1996 320.335 36.3165L319.979 37.0303C319.922 37.1524 319.835 37.2577 319.726 37.3359C319.616 37.4141 319.488 37.4625 319.355 37.4764C318.998 37.4764 318.909 37.2087 319.087 36.941Z" fill="#FFE779"/>
<path d="M497.734 193.527L463.145 191.385C462.576 191.348 462.02 191.198 461.51 190.944C460.999 190.69 460.544 190.337 460.17 189.905C459.797 189.473 459.513 188.972 459.336 188.429C459.158 187.887 459.089 187.315 459.134 186.746L464.394 115.725C464.494 114.536 465.016 113.423 465.867 112.588C466.718 111.753 467.84 111.251 469.029 111.174L504.42 109.033C505.033 109.001 505.646 109.1 506.218 109.323C506.79 109.546 507.308 109.888 507.738 110.327C508.168 110.766 508.499 111.291 508.711 111.868C508.923 112.444 509.01 113.059 508.966 113.672L503.082 188.976C502.945 190.277 502.313 191.475 501.317 192.322C500.321 193.169 499.038 193.6 497.734 193.527Z" fill="#22272E"/>
<path d="M495.327 193.527L460.739 191.385C460.169 191.348 459.613 191.198 459.103 190.944C458.592 190.69 458.137 190.337 457.764 189.905C457.39 189.473 457.107 188.972 456.929 188.429C456.751 187.887 456.682 187.315 456.727 186.746L461.987 115.725C462.087 114.536 462.61 113.423 463.46 112.588C464.311 111.753 465.433 111.251 466.622 111.174L502.013 109.033C502.626 109.001 503.239 109.1 503.811 109.323C504.383 109.546 504.901 109.888 505.331 110.327C505.761 110.766 506.092 111.291 506.304 111.868C506.516 112.444 506.603 113.059 506.559 113.672L500.675 188.976C500.538 190.277 499.906 191.475 498.91 192.322C497.915 193.169 496.631 193.6 495.327 193.527Z" fill="#22272E"/>
<path d="M484.718 117.331L478.122 117.687C478.003 117.695 477.883 117.678 477.771 117.636C477.66 117.594 477.558 117.528 477.474 117.444C477.389 117.359 477.324 117.258 477.282 117.146C477.24 117.034 477.222 116.914 477.23 116.795C477.233 116.536 477.337 116.287 477.52 116.104C477.703 115.92 477.952 115.816 478.211 115.814L484.808 115.457C484.927 115.449 485.046 115.467 485.158 115.509C485.27 115.551 485.371 115.616 485.455 115.701C485.54 115.785 485.605 115.887 485.647 115.999C485.689 116.11 485.707 116.23 485.699 116.349C485.697 116.609 485.593 116.857 485.409 117.04C485.226 117.224 484.978 117.328 484.718 117.331Z" fill="#63737A"/>
<path d="M488.552 117.152H488.373C488.254 117.16 488.135 117.142 488.023 117.1C487.911 117.058 487.81 116.993 487.726 116.908C487.641 116.824 487.576 116.722 487.534 116.61C487.492 116.499 487.474 116.379 487.482 116.26C487.516 115.988 487.639 115.734 487.833 115.54C488.027 115.346 488.28 115.223 488.552 115.189H488.73C488.849 115.181 488.968 115.199 489.08 115.241C489.192 115.283 489.293 115.348 489.378 115.433C489.462 115.517 489.528 115.619 489.57 115.731C489.612 115.843 489.629 115.962 489.621 116.081C489.588 116.354 489.464 116.607 489.27 116.801C489.077 116.995 488.824 117.118 488.552 117.152Z" fill="#63737A"/>
<path d="M478.211 129.197L469.386 129.465C469.17 129.468 468.957 129.424 468.759 129.338C468.562 129.251 468.386 129.123 468.242 128.962C468.099 128.802 467.991 128.612 467.927 128.406C467.863 128.201 467.843 127.983 467.87 127.77C467.917 127.312 468.12 126.885 468.445 126.56C468.769 126.235 469.196 126.032 469.653 125.985L478.478 125.628C478.694 125.625 478.907 125.669 479.104 125.755C479.302 125.842 479.478 125.97 479.622 126.13C479.765 126.291 479.873 126.481 479.937 126.687C480.001 126.892 480.021 127.11 479.994 127.323C479.982 127.801 479.793 128.258 479.463 128.604C479.134 128.951 478.687 129.162 478.211 129.197Z" fill="#63737A"/>
<path d="M475.893 159.89L467.157 159.8C466.946 159.789 466.74 159.736 466.549 159.645C466.359 159.553 466.188 159.425 466.048 159.268C465.907 159.11 465.799 158.926 465.729 158.727C465.659 158.527 465.629 158.316 465.641 158.105C465.691 157.658 465.897 157.242 466.224 156.932C466.55 156.621 466.975 156.437 467.424 156.41L476.161 156.499C476.374 156.503 476.584 156.551 476.778 156.64C476.972 156.729 477.145 156.857 477.287 157.016C477.43 157.175 477.538 157.362 477.604 157.565C477.671 157.768 477.696 157.982 477.676 158.194C477.643 158.648 477.442 159.074 477.112 159.387C476.782 159.701 476.348 159.88 475.893 159.89Z" fill="#63737A"/>
<path d="M474.021 184.693L465.285 184.247C465.067 184.233 464.855 184.175 464.66 184.077C464.465 183.978 464.292 183.842 464.15 183.676C464.009 183.509 463.903 183.316 463.837 183.108C463.772 182.9 463.749 182.68 463.769 182.463C463.788 182.027 463.975 181.616 464.291 181.316C464.607 181.017 465.028 180.852 465.463 180.857L474.199 181.214C474.42 181.221 474.636 181.274 474.835 181.369C475.034 181.465 475.21 181.601 475.353 181.769C475.496 181.938 475.602 182.134 475.664 182.345C475.726 182.557 475.744 182.779 475.715 182.998C475.715 183.448 475.536 183.879 475.219 184.197C474.901 184.515 474.47 184.693 474.021 184.693Z" fill="#63737A"/>
<path d="M494.346 148.915L468.316 149.004C468.054 149.006 467.795 148.952 467.556 148.847C467.316 148.742 467.101 148.587 466.925 148.394C466.749 148.201 466.615 147.973 466.532 147.724C466.449 147.476 466.419 147.213 466.444 146.952L467.246 135.621C467.279 135.167 467.48 134.742 467.81 134.428C468.14 134.115 468.574 133.936 469.029 133.926L495.149 133.212C495.41 133.211 495.669 133.265 495.909 133.37C496.148 133.475 496.363 133.629 496.54 133.822C496.716 134.016 496.85 134.244 496.933 134.492C497.016 134.741 497.045 135.004 497.021 135.264L496.129 147.131C496.129 147.604 495.941 148.058 495.607 148.393C495.273 148.727 494.819 148.915 494.346 148.915Z" fill="#B0D7C0"/>
<path d="M475.269 175.147L466.355 174.79C466.1 174.781 465.849 174.721 465.619 174.611C465.389 174.501 465.184 174.345 465.016 174.153C464.849 173.96 464.723 173.735 464.647 173.492C464.57 173.248 464.545 172.992 464.572 172.738L465.107 165.957C465.118 165.722 465.175 165.493 465.276 165.28C465.376 165.068 465.517 164.878 465.691 164.72C465.865 164.563 466.068 164.441 466.289 164.363C466.51 164.284 466.744 164.25 466.979 164.262L475.982 164.44C476.501 164.468 476.988 164.699 477.338 165.082C477.688 165.466 477.874 165.973 477.854 166.492L477.319 173.452C477.238 173.933 476.986 174.37 476.61 174.681C476.233 174.993 475.757 175.158 475.269 175.147Z" fill="#FFE779"/>
<path d="M492.207 175.682L482.668 175.325C482.413 175.317 482.163 175.256 481.933 175.146C481.702 175.037 481.497 174.881 481.33 174.688C481.162 174.495 481.037 174.27 480.96 174.027C480.884 173.783 480.858 173.527 480.885 173.273L481.42 166.224C481.432 165.99 481.489 165.76 481.589 165.548C481.69 165.336 481.831 165.146 482.005 164.988C482.179 164.831 482.382 164.709 482.603 164.63C482.824 164.552 483.058 164.517 483.292 164.529L492.92 164.708C493.439 164.735 493.925 164.966 494.276 165.35C494.626 165.734 494.811 166.24 494.792 166.76L494.257 173.987C494.179 174.47 493.928 174.909 493.551 175.221C493.174 175.533 492.696 175.697 492.207 175.682Z" fill="#F4C2C9"/>
<path d="M278.794 83.6936L249.822 85.0319C249.289 85.0536 248.757 84.9553 248.267 84.7441C247.777 84.533 247.341 84.2145 246.99 83.8121C246.639 83.4096 246.383 82.9336 246.241 82.4189C246.098 81.9043 246.073 81.3642 246.167 80.8385L250.981 32.6583C251.111 31.4363 251.633 30.2892 252.468 29.3886C253.304 28.488 254.408 27.8823 255.616 27.6619L285.123 23.8253C287.708 23.4684 289.491 25.3421 289.224 27.9296L283.786 78.8756C283.631 80.1296 283.051 81.2924 282.142 82.1694C281.234 83.0465 280.051 83.5845 278.794 83.6936Z" fill="#22272E"/>
<path d="M276.654 82.7121L247.682 84.0505C247.149 84.0722 246.618 83.9738 246.128 83.7627C245.638 83.5516 245.201 83.233 244.85 82.8306C244.5 82.4282 244.244 81.9521 244.101 81.4375C243.959 80.9228 243.933 80.3827 244.027 79.857L248.841 31.6769C248.971 30.4548 249.493 29.3078 250.329 28.4072C251.164 27.5066 252.269 26.9008 253.477 26.6804L282.984 22.8439C285.569 22.487 287.352 24.3606 287.084 26.9481L281.646 77.8941C281.508 79.1546 280.933 80.3267 280.021 81.2068C279.109 82.087 277.918 82.6196 276.654 82.7121Z" fill="#22272E"/>
<path d="M277.991 39.0824L255.438 41.4914C255.269 41.5097 255.099 41.4901 254.939 41.4338C254.78 41.3775 254.634 41.286 254.515 41.1662C254.395 41.0463 254.304 40.9011 254.247 40.7412C254.191 40.5813 254.171 40.4108 254.19 40.2423L254.725 34.7105C254.741 34.4557 254.85 34.2157 255.03 34.0351C255.211 33.8546 255.451 33.7458 255.705 33.729L278.348 31.0524C278.516 31.034 278.687 31.0537 278.846 31.11C279.006 31.1663 279.151 31.2577 279.271 31.3776C279.391 31.4975 279.482 31.6427 279.538 31.8026C279.595 31.9625 279.614 32.133 279.596 32.3015L278.972 38.1009C278.97 38.3605 278.866 38.6088 278.682 38.7924C278.499 38.9759 278.251 39.0801 277.991 39.0824Z" fill="#F4C2C9"/>
<path d="M257.042 54.4287L254.101 54.6963C253.932 54.7147 253.762 54.695 253.602 54.6387C253.442 54.5824 253.297 54.491 253.178 54.3711C253.058 54.2512 252.966 54.106 252.91 53.9461C252.854 53.7862 252.834 53.6157 252.853 53.4472L253.209 50.2352C253.226 49.9804 253.335 49.7404 253.515 49.5599C253.695 49.3793 253.935 49.2705 254.19 49.2538L257.132 48.9861C257.3 48.9677 257.47 48.9874 257.63 49.0437C257.79 49.1 257.935 49.1915 258.055 49.3113C258.174 49.4312 258.266 49.5764 258.322 49.7363C258.378 49.8962 258.398 50.0667 258.38 50.2352L258.023 53.4472C258.006 53.702 257.898 53.942 257.717 54.1226C257.537 54.3031 257.297 54.4119 257.042 54.4287Z" fill="#B0D7C0"/>
<path d="M276.565 52.7334L273.356 53.0011C273.188 53.0194 273.017 52.9998 272.858 52.9435C272.698 52.8872 272.553 52.7957 272.433 52.6759C272.313 52.556 272.222 52.4108 272.166 52.2509C272.109 52.091 272.09 51.9205 272.108 51.752L272.465 48.3615C272.481 48.1067 272.59 47.8667 272.77 47.6862C272.951 47.5056 273.191 47.3969 273.445 47.3801L276.654 47.0232C276.823 47.0048 276.993 47.0246 277.153 47.0808C277.313 47.1371 277.458 47.2286 277.577 47.3484C277.697 47.4683 277.789 47.6135 277.845 47.7734C277.901 47.9333 277.921 48.1038 277.902 48.2723L277.546 51.6628C277.532 51.9274 277.426 52.1789 277.247 52.3742C277.069 52.5695 276.827 52.6965 276.565 52.7334Z" fill="#B0D7C0"/>
<path d="M266.67 53.5364L263.639 53.8041C263.471 53.8225 263.301 53.8027 263.141 53.7465C262.981 53.6902 262.836 53.5987 262.716 53.4789C262.596 53.359 262.505 53.2138 262.449 53.0539C262.393 52.894 262.373 52.7235 262.391 52.555L262.748 49.2538C262.765 48.999 262.873 48.759 263.054 48.5784C263.234 48.3979 263.474 48.2891 263.728 48.2723L266.759 48.0046C266.928 47.9863 267.098 48.006 267.258 48.0623C267.417 48.1186 267.563 48.21 267.682 48.3299C267.802 48.4497 267.893 48.595 267.95 48.7549C268.006 48.9148 268.026 49.0852 268.007 49.2538L267.651 52.555C267.648 52.8146 267.544 53.0628 267.361 53.2464C267.178 53.43 266.929 53.5341 266.67 53.5364Z" fill="#B0D7C0"/>
<path d="M255.884 65.403L252.942 65.5815C252.775 65.5934 252.607 65.5693 252.45 65.5107C252.294 65.4522 252.151 65.3606 252.033 65.2421C251.914 65.1236 251.823 64.9811 251.764 64.8241C251.706 64.6672 251.682 64.4994 251.694 64.3323L252.05 61.1203C252.087 60.8579 252.214 60.6165 252.409 60.4375C252.604 60.2584 252.856 60.1529 253.12 60.1389L256.062 59.8712C256.23 59.8529 256.401 59.8726 256.56 59.9289C256.72 59.9851 256.865 60.0766 256.985 60.1964C257.105 60.3163 257.196 60.4615 257.252 60.6214C257.308 60.7813 257.328 60.9518 257.31 61.1203L256.953 64.3323C256.934 64.6101 256.816 64.8717 256.619 65.0685C256.422 65.2654 256.161 65.3842 255.884 65.403Z" fill="#B0D7C0"/>
<path d="M275.406 64.0647L272.197 64.3324C272.03 64.3443 271.863 64.3202 271.706 64.2616C271.549 64.2031 271.407 64.1114 271.288 63.993C271.17 63.8745 271.078 63.732 271.02 63.575C270.961 63.4181 270.937 63.2503 270.949 63.0832L271.306 59.782C271.343 59.5196 271.469 59.2782 271.665 59.0992C271.86 58.9201 272.111 58.8145 272.375 58.8006L275.585 58.5329C275.753 58.5146 275.923 58.5342 276.083 58.5905C276.243 58.6468 276.388 58.7383 276.508 58.8581C276.627 58.978 276.719 59.1232 276.775 59.2831C276.831 59.443 276.851 59.6135 276.833 59.782L276.476 63.1725C276.391 63.4017 276.248 63.6047 276.06 63.7612C275.872 63.9177 275.647 64.0224 275.406 64.0647Z" fill="#B0D7C0"/>
<path d="M265.511 64.7784L262.48 64.9569C262.313 64.9688 262.146 64.9447 261.989 64.8861C261.832 64.8276 261.69 64.736 261.571 64.6175C261.453 64.499 261.361 64.3565 261.303 64.1995C261.244 64.0426 261.22 63.8749 261.232 63.7078L261.589 60.4065C261.626 60.1441 261.753 59.9027 261.948 59.7237C262.143 59.5446 262.394 59.4391 262.659 59.4251L265.689 59.1574C265.858 59.1391 266.028 59.1588 266.188 59.215C266.348 59.2713 266.493 59.3628 266.613 59.4826C266.732 59.6025 266.824 59.7477 266.88 59.9076C266.936 60.0675 266.956 60.238 266.937 60.4065L266.581 63.7078C266.533 63.974 266.404 64.2191 266.213 64.4104C266.022 64.6017 265.777 64.7301 265.511 64.7784Z" fill="#B0D7C0"/>
<path d="M254.725 76.3774L251.872 76.5558C251.71 76.5651 251.547 76.5384 251.396 76.4776C251.245 76.4168 251.11 76.3234 250.999 76.2041C250.888 76.0848 250.805 75.9425 250.756 75.7874C250.706 75.6323 250.692 75.4681 250.713 75.3067L251.07 72.0947C251.107 71.8323 251.233 71.5909 251.429 71.4118C251.624 71.2328 251.875 71.1272 252.139 71.1133L254.992 70.9348C255.157 70.9167 255.323 70.9374 255.478 70.9952C255.633 71.053 255.773 71.1464 255.885 71.2677C255.998 71.3891 256.081 71.5352 256.127 71.6943C256.173 71.8534 256.181 72.0211 256.151 72.1839L255.794 75.3959C255.772 75.6642 255.649 75.9141 255.451 76.096C255.253 76.2779 254.994 76.3783 254.725 76.3774Z" fill="#B0D7C0"/>
<path d="M274.158 75.3067L270.949 75.4852C270.787 75.4944 270.624 75.4677 270.473 75.4069C270.322 75.3461 270.187 75.2527 270.076 75.1334C269.965 75.0141 269.882 74.8718 269.833 74.7167C269.784 74.5616 269.769 74.3974 269.79 74.236L270.147 70.9348C270.184 70.6724 270.311 70.431 270.506 70.252C270.701 70.0729 270.952 69.9673 271.217 69.9533L274.426 69.7749C274.59 69.7568 274.757 69.7775 274.912 69.8353C275.067 69.8931 275.206 69.9865 275.319 70.1078C275.432 70.2292 275.514 70.3753 275.56 70.5344C275.607 70.6935 275.615 70.8612 275.585 71.024L275.228 74.4145C275.172 74.6598 275.037 74.8799 274.843 75.0411C274.65 75.2022 274.41 75.2955 274.158 75.3067Z" fill="#FFE779"/>
<path d="M264.352 75.842L261.321 76.0204C261.159 76.0297 260.996 76.003 260.846 75.9422C260.695 75.8814 260.559 75.788 260.448 75.6687C260.338 75.5494 260.255 75.4071 260.205 75.252C260.156 75.0969 260.141 74.9327 260.162 74.7713L260.519 71.5593C260.556 71.2969 260.683 71.0555 260.878 70.8765C261.073 70.6974 261.324 70.5919 261.589 70.5779L264.62 70.3994C264.784 70.3813 264.951 70.402 265.106 70.4598C265.261 70.5176 265.4 70.611 265.513 70.7324C265.626 70.8537 265.708 70.9998 265.754 71.1589C265.8 71.318 265.809 71.4857 265.779 71.6485L265.422 74.9498C265.366 75.1951 265.231 75.4152 265.037 75.5764C264.844 75.7375 264.604 75.8308 264.352 75.842Z" fill="#FFE779"/>
<path d="M306.875 83.1583L446.475 68.7043C447.08 68.6435 447.69 68.7164 448.263 68.9178C448.836 69.1192 449.358 69.4442 449.792 69.8697C450.226 70.2953 450.561 70.8111 450.773 71.3806C450.986 71.9501 451.071 72.5594 451.022 73.1654L439.076 209.14C438.94 210.75 438.186 212.243 436.972 213.308C435.759 214.373 434.181 214.926 432.569 214.851L296.979 207.534C295.882 207.47 294.854 206.975 294.12 206.156C293.385 205.337 293.004 204.262 293.057 203.163L301.258 89.047C301.363 87.5644 301.981 86.1646 303.006 85.0895C304.031 84.0144 305.4 83.3313 306.875 83.1583Z" fill="#F8AB5D"/>
<path d="M301.793 81.6416L442.999 67.0091C443.612 66.9428 444.232 67.015 444.814 67.2203C445.396 67.4255 445.924 67.7587 446.36 68.1952C446.796 68.6317 447.129 69.1605 447.334 69.7427C447.539 70.3249 447.611 70.9457 447.545 71.5594L435.511 209.051C435.39 210.683 434.627 212.2 433.391 213.27C432.154 214.341 430.544 214.877 428.914 214.762L291.72 207.356C291.167 207.329 290.625 207.191 290.126 206.951C289.627 206.71 289.181 206.372 288.816 205.956C288.45 205.54 288.171 205.055 287.996 204.529C287.821 204.003 287.754 203.447 287.797 202.895L296.088 87.441C296.244 85.9713 296.893 84.598 297.929 83.5448C298.965 82.4916 300.327 81.8208 301.793 81.6416Z" fill="#FFE779"/>
<path d="M316.413 111.263L309.994 111.62L309.192 123.576L315.521 123.398L316.413 111.263Z" fill="#6DAFA7"/>
<path d="M309.192 123.576L308.746 129.465L315.076 129.286L315.522 123.398L309.192 123.576Z" fill="#B0D7C0"/>
<path d="M330.23 95.0249L323.812 95.471L322.742 110.907L329.071 110.639L330.23 95.0249Z" fill="#6DAFA7"/>
<path d="M322.742 110.906L321.405 129.108L327.734 128.929L329.072 110.639L322.742 110.906Z" fill="#B0D7C0"/>
<path d="M336.114 100.646L335.401 110.282L341.73 109.925L342.443 100.2L336.114 100.646Z" fill="#6DAFA7"/>
<path d="M335.401 110.282L334.064 128.84L340.393 128.662L341.73 109.925L335.401 110.282Z" fill="#B0D7C0"/>
<path d="M354.389 109.211L348.059 109.568L347.614 116.349L353.943 115.992L354.389 109.211Z" fill="#6DAFA7"/>
<path d="M347.614 116.349L346.722 128.483L353.051 128.305L353.943 115.992L347.614 116.349Z" fill="#B0D7C0"/>
<path d="M367.85 98.4153L367.047 108.587L366.602 115.278L360.272 115.635L360.718 108.854L361.52 98.8615L367.85 98.4153Z" fill="#6DAFA7"/>
<path d="M360.272 115.635L359.292 128.126L365.621 128.037L366.602 115.278L360.272 115.635Z" fill="#B0D7C0"/>
<path d="M418.751 91.0991L407.43 109.033L397.535 95.5602C401.368 92.3389 406.099 90.3764 411.085 89.9392C413.695 89.7505 416.314 90.1468 418.751 91.0991Z" fill="#22272E"/>
<path d="M427.577 107.605L407.43 109.033L418.751 91.0991C424.991 93.5974 428.646 99.8429 427.577 107.605Z" fill="#F4C2C9"/>
<path d="M427.577 107.605C427.577 107.873 427.488 108.141 427.488 108.408C425.615 119.026 415.72 127.859 405.29 128.662L407.43 109.033L427.577 107.605Z" fill="#B0D7C0"/>
<path d="M407.43 109.033L405.29 128.662C404.729 128.736 404.163 128.766 403.597 128.751C392.988 128.751 386.481 120.096 388.709 109.657C389.998 104.129 393.106 99.1953 397.535 95.6494L407.43 109.033Z" fill="white"/>
<path d="M424.724 143.919L420.088 189.155L303.576 187.013L303.754 183.534L328.982 166.135C329.546 165.735 330.223 165.528 330.914 165.544C331.604 165.56 332.271 165.799 332.816 166.224L342.265 173.184C342.615 173.444 343.014 173.632 343.437 173.737C343.86 173.842 344.3 173.862 344.732 173.795C345.163 173.729 345.576 173.578 345.949 173.35C346.321 173.123 346.644 172.823 346.9 172.47L356.261 159.979C356.573 159.56 356.981 159.222 357.45 158.991C357.919 158.761 358.436 158.645 358.958 158.654C359.48 158.663 359.993 158.796 360.454 159.041C360.915 159.287 361.311 159.639 361.609 160.068L369.9 171.578C370.158 171.942 370.487 172.251 370.866 172.485C371.246 172.719 371.669 172.874 372.11 172.941C372.552 173.007 373.002 172.984 373.434 172.873C373.866 172.761 374.271 172.563 374.625 172.292C375.186 171.866 375.867 171.629 376.571 171.613C377.275 171.597 377.967 171.803 378.547 172.202L384.43 176.396C384.797 176.654 385.212 176.836 385.65 176.931C386.088 177.026 386.541 177.032 386.981 176.949C387.422 176.866 387.841 176.695 388.215 176.447C388.588 176.199 388.908 175.878 389.155 175.504L402.349 155.161C402.596 154.787 402.916 154.466 403.289 154.218C403.663 153.969 404.082 153.799 404.523 153.715C404.963 153.632 405.416 153.638 405.854 153.733C406.292 153.828 406.707 154.01 407.073 154.269L410.907 157.035C411.256 157.296 411.655 157.485 412.078 157.59C412.502 157.696 412.942 157.716 413.374 157.65C413.805 157.583 414.219 157.432 414.591 157.203C414.964 156.975 415.287 156.675 415.542 156.321L424.724 143.919Z" fill="#6DAFA7"/>
<path d="M339.947 158.284H334.866C334.749 158.28 334.632 158.303 334.525 158.349C334.417 158.395 334.32 158.464 334.242 158.551L333.083 159.711C332.916 159.875 332.692 159.966 332.459 159.966C332.226 159.966 332.002 159.875 331.835 159.711L330.944 158.551C330.865 158.464 330.769 158.395 330.661 158.349C330.553 158.303 330.437 158.28 330.32 158.284H325.417C325.314 158.289 325.211 158.271 325.115 158.232C325.02 158.192 324.935 158.131 324.867 158.054C324.798 157.977 324.748 157.885 324.72 157.786C324.691 157.687 324.686 157.582 324.703 157.481L325.417 147.845C325.433 147.613 325.532 147.396 325.696 147.232C325.86 147.068 326.077 146.969 326.308 146.952L340.839 146.417C341.051 146.417 341.256 146.502 341.406 146.652C341.556 146.803 341.641 147.007 341.641 147.22L340.839 157.302C340.851 157.427 340.837 157.552 340.798 157.671C340.759 157.79 340.695 157.899 340.611 157.992C340.527 158.084 340.425 158.158 340.31 158.208C340.196 158.259 340.072 158.284 339.947 158.284Z" fill="white"/>
<path d="M387.551 163.102L382.469 163.013C382.352 163.009 382.236 163.032 382.128 163.078C382.02 163.124 381.924 163.193 381.845 163.28L380.686 164.44C380.605 164.528 380.504 164.597 380.393 164.641C380.281 164.685 380.161 164.703 380.041 164.695C379.921 164.686 379.805 164.651 379.701 164.591C379.596 164.532 379.507 164.45 379.438 164.351L378.547 163.191C378.468 163.104 378.372 163.035 378.264 162.989C378.157 162.942 378.04 162.92 377.923 162.923L373.109 162.834C372.663 162.834 372.396 162.477 372.396 161.942L373.109 152.217C373.121 151.998 373.207 151.791 373.353 151.628C373.499 151.466 373.696 151.359 373.911 151.324L388.442 150.967C388.555 150.969 388.665 150.995 388.768 151.041C388.87 151.088 388.962 151.155 389.037 151.239C389.112 151.323 389.169 151.421 389.205 151.528C389.241 151.635 389.254 151.748 389.244 151.86L388.442 162.209C388.45 162.329 388.432 162.448 388.39 162.56C388.348 162.672 388.283 162.773 388.198 162.858C388.114 162.942 388.013 163.008 387.901 163.05C387.789 163.092 387.67 163.11 387.551 163.102Z" fill="#F4C2C9"/>
<path d="M143.383 420.509C143.026 421.669 142.224 426.308 141.6 430.591C134.936 431.588 128.127 430.755 121.899 428.182C122.344 423.721 122.79 419.081 122.79 419.081C122.79 416.583 144.096 418.367 143.383 420.509Z" fill="#22272E"/>
<path d="M141.6 430.501C141.065 434.249 140.53 437.55 140.53 437.55C140.53 437.55 138.123 443.171 132.061 443.171C125.999 443.171 121.096 438.085 121.186 435.944C121.275 434.963 121.542 431.572 121.899 428.092C128.124 430.677 134.936 431.51 141.6 430.501Z" fill="#F4C2C9"/>
<path d="M121.275 434.249C122.147 435.218 123.07 436.141 124.038 437.015C125.019 437.907 128.05 435.141 132.329 435.676C136.608 436.212 137.945 437.907 137.945 437.907C138.934 437.707 139.873 437.313 140.708 436.747C140.791 438.977 141.242 441.178 142.045 443.26C143.383 446.74 150.158 456.911 150.158 458.874C150.158 460.837 149.712 462.354 148.286 462.978C146.859 463.603 137.41 463.692 129.476 463.871C121.542 464.049 115.391 464.495 114.5 461.372C113.608 458.25 117.263 448.524 118.779 442.547C120.294 436.569 120.027 434.338 121.275 434.249Z" fill="#22272E"/>
<path d="M122.612 450.755C122.612 450.755 132.15 445.669 141.243 450.755" stroke="white" stroke-width="1.8" stroke-linecap="round" stroke-linejoin="round"/>
<path d="M124.395 445.758C129.348 444.35 134.596 444.35 139.549 445.758" stroke="white" stroke-width="1.8" stroke-linecap="round" stroke-linejoin="round"/>
<path d="M235.915 426.665C225.753 430.145 215.233 428.003 215.323 428.092C214.966 423.096 214.52 417.832 214.52 417.832C215.857 414.709 235.024 413.281 235.202 414.62C235.202 415.334 235.559 421.222 235.915 426.665Z" fill="#22272E"/>
<path d="M236.45 436.122C236.45 436.122 235.113 440.316 229.318 442.457C223.524 444.599 216.125 438.799 216.036 437.104C215.947 436.39 215.679 432.286 215.323 428.092C215.323 428.003 225.753 430.145 235.915 426.665C236.182 431.572 236.45 436.122 236.45 436.122Z" fill="#F4C2C9"/>
<path d="M215.858 435.855C215.233 435.855 214.788 436.747 214.431 442.368C214.075 447.989 212.292 460.391 214.431 462.265C216.571 464.138 259.271 463.603 264.174 463.246C269.077 462.889 271.751 459.677 270.236 457.536C268.72 455.394 258.201 451.469 248.93 445.223C239.659 438.978 237.431 437.639 236.361 436.122C236.361 436.122 236.896 431.037 234.132 431.84C231.369 432.643 229.497 439.245 225.931 440.137C222.365 441.03 221.919 435.498 215.858 435.855Z" fill="#22272E"/>
<path d="M250.981 445.402C250.981 445.402 248.574 444.688 243.136 450.487" stroke="white" stroke-width="1.8" stroke-linecap="round" stroke-linejoin="round"/>
<path d="M245.097 441.565C245.097 441.565 240.818 441.387 235.915 447.721" stroke="white" stroke-width="1.8" stroke-linecap="round" stroke-linejoin="round"/>
<path d="M125.286 429.342L125.821 425.773" stroke="#63737A" stroke-width="1.8" stroke-linecap="round" stroke-linejoin="round"/>
<path d="M131.437 430.68L131.972 427.111" stroke="#63737A" stroke-width="1.8" stroke-linecap="round" stroke-linejoin="round"/>
<path d="M138.212 430.948L138.836 427.736" stroke="#63737A" stroke-width="1.8" stroke-linecap="round" stroke-linejoin="round"/>
<path d="M219.334 428.538L219.067 424.791" stroke="#63737A" stroke-width="1.8" stroke-linecap="round" stroke-linejoin="round"/>
<path d="M226.733 428.449L226.466 424.345" stroke="#63737A" stroke-width="1.8" stroke-linecap="round" stroke-linejoin="round"/>
<path d="M233.419 427.379L233.152 423.542" stroke="#63737A" stroke-width="1.8" stroke-linecap="round" stroke-linejoin="round"/>
<path d="M119.314 220.739C117.788 227.779 116.952 234.951 116.818 242.153C116.55 254.376 126.089 292.653 129.565 305.59C133.042 318.527 132.329 320.579 131.794 323.078C131.259 325.576 125.91 345.383 124.127 365.904C122.345 386.426 115.926 402.932 116.639 409.267C117.62 417.832 121.275 420.33 122.79 421.312C124.306 422.293 136.786 426.308 145.255 424.345C145.255 424.345 154.258 418.635 155.952 410.605C157.646 402.575 156.665 392.85 162.46 366.618C168.254 340.387 170.928 329.591 171.731 319.152C172.177 312.906 172.266 295.062 172.355 281.411C172.444 272.132 172.444 264.726 172.533 264.012C172.801 262.228 177.169 264.28 179.486 258.57C180.467 255.982 181.002 251.075 181.091 245.811C181.269 239.119 180.824 231.803 179.932 227.788C178.506 220.382 120.74 212.888 119.314 220.739Z" fill="#22272E"/>
<path d="M241.62 410.873C240.105 414.62 237.341 418.903 234.845 419.884C232.349 420.865 221.117 422.382 215.412 421.847C215.412 421.847 205.873 419.081 204.893 411.854C203.912 404.627 205.606 396.597 202.397 380.358C199.187 364.12 196.424 335.39 195.622 326.914C194.819 318.438 177.347 293.188 169.146 277.931C160.944 262.674 152.119 234.747 159.429 228.234C166.739 221.721 192.858 218.777 200.614 224.041C200.614 224.041 209.617 245.989 218.621 272.221C226.912 296.311 228.605 304.43 229.764 311.389C229.84 312.021 229.959 312.648 230.121 313.263C230.477 315.404 230.923 320.936 231.547 328.074C232.973 346.186 234.667 374.291 235.38 380.715C236.361 389.638 243.136 407.125 241.62 410.873Z" fill="#22272E"/>
<path d="M167.541 265.351C173.342 263.258 179.305 261.647 185.37 260.533" stroke="#63737A" stroke-width="1.8" stroke-linecap="round" stroke-linejoin="round"/>
<path d="M167.062 329.85C168.382 323.379 164.289 317.079 157.92 315.778C151.551 314.477 145.318 318.668 143.999 325.139C142.679 331.61 146.773 337.91 153.142 339.211C159.51 340.512 165.743 336.321 167.062 329.85Z" stroke="#63737A" stroke-width="1.80036" stroke-linecap="round" stroke-linejoin="round"/>
<path d="M231.547 327.985C230.459 329.352 229.075 330.456 227.501 331.213C225.926 331.97 224.201 332.361 222.454 332.357C219.31 332.368 216.289 331.13 214.057 328.913C211.826 326.695 210.565 323.682 210.553 320.535C210.541 317.387 211.779 314.364 213.994 312.131C216.21 309.897 219.221 308.635 222.365 308.623C225.068 308.625 227.685 309.572 229.764 311.3" stroke="#63737A" stroke-width="1.8" stroke-linecap="round" stroke-linejoin="round"/>
<path d="M121.364 262.942C124.518 260.034 127.034 256.503 128.753 252.571C130.472 248.639 131.356 244.392 131.348 240.101C127.996 239.912 124.66 239.495 121.364 238.852" stroke="#63737A" stroke-width="1.8" stroke-linecap="round" stroke-linejoin="round"/>
<path d="M172.355 281.411C172.444 272.131 172.444 264.726 172.533 264.012C172.8 262.228 177.168 264.28 179.486 258.57C180.467 255.982 181.002 251.075 181.091 245.811" stroke="#63737A" stroke-width="1.8" stroke-linecap="round" stroke-linejoin="round"/>
<path d="M198.653 118.58C198.653 118.58 205.962 118.936 217.73 142.491C229.497 166.046 233.686 174.522 233.686 174.522C233.686 174.522 241.442 172.648 254.101 170.596C266.759 168.544 284.588 165.957 284.588 165.957C284.588 165.957 289.402 166.046 291.452 172.916C291.975 174.655 292.053 176.498 291.679 178.275C291.305 180.052 290.492 181.707 289.313 183.087C288.869 183.647 288.285 184.078 287.619 184.337C282.181 186.656 250.446 200.04 239.659 202.36C227.803 204.858 222.008 204.501 211.489 190.047C200.97 175.593 192.68 164.351 188.847 158.551C185.013 152.484 182.25 119.472 198.653 118.58Z" fill="#6DAFA7"/>
<path d="M218.71 198.255C218.71 198.255 218.086 193.526 227.268 193.526C236.45 193.526 241.175 200.397 238.946 202.36" stroke="#22272E" stroke-width="1.8" stroke-linecap="round" stroke-linejoin="round"/>
<path d="M233.686 174.433C233.686 174.433 229.853 176.217 229.051 178.894" stroke="#22272E" stroke-width="1.8" stroke-linecap="round" stroke-linejoin="round"/>
<path d="M285.034 166.671C285.034 166.671 288.956 165.243 289.937 164.708C290.918 164.172 293.057 160.425 294.84 158.105C296.623 155.785 301.704 154.447 303.13 154.715C303.518 154.767 303.892 154.896 304.228 155.096C304.565 155.295 304.859 155.56 305.092 155.875C305.092 155.875 309.549 154.269 312.58 153.02C315.611 151.77 321.227 149.005 322.029 151.235C322.475 152.573 318.998 154.536 316.591 155.875C313.649 157.57 311.688 158.819 311.688 158.819C312.155 159.095 312.557 159.469 312.865 159.916C313.172 160.363 313.379 160.871 313.471 161.406C313.828 163.28 314.808 165.332 313.025 168.187C312.491 168.99 314.541 171.221 312.936 173.273C310.173 176.574 303.487 178.269 299.921 179.34C296.355 180.411 287.976 180.946 287.976 180.946C287.976 180.946 285.301 180.322 284.142 174.522C282.984 168.723 285.034 166.671 285.034 166.671Z" fill="#F4C2C9"/>
<path d="M305.092 155.875C305.092 155.875 305.716 157.481 306.429 159.89C307.142 162.299 307.677 164.172 305.805 164.262C303.933 164.351 302.239 161.496 301.526 160.068" stroke="#E26E85" stroke-width="1.8" stroke-linecap="round" stroke-linejoin="round"/>
<path d="M302.774 162.12C302.774 162.12 304.824 166.224 300.099 169.793" stroke="#E26E85" stroke-width="1.8" stroke-linecap="round" stroke-linejoin="round"/>
<path d="M311.777 158.819L306.785 161.139" stroke="#E26E85" stroke-width="1.8" stroke-linecap="round" stroke-linejoin="round"/>
<path d="M304.289 163.726C304.289 163.726 303.398 165.154 304.289 165.957C305.181 166.76 310.084 164.975 313.649 162.923" stroke="#E26E85" stroke-width="1.8" stroke-linecap="round" stroke-linejoin="round"/>
<path d="M305.092 166.135C304.674 166.356 304.357 166.73 304.208 167.179C304.059 167.627 304.088 168.117 304.289 168.544C305.002 170.15 308.836 169.526 313.025 168.187" stroke="#E26E85" stroke-width="1.8" stroke-linecap="round" stroke-linejoin="round"/>
<path d="M305.894 169.526C305.894 169.526 303.665 169.793 304.824 172.024C305.537 173.362 309.816 172.916 310.708 173.273" stroke="#E26E85" stroke-width="1.8" stroke-linecap="round" stroke-linejoin="round"/>
<path d="M279.864 167.474C279.15 168.723 278.259 171.132 278.883 175.414C279.058 177.263 279.645 179.048 280.602 180.639C281.558 182.229 282.86 183.585 284.41 184.604" stroke="#22272E" stroke-width="1.8" stroke-linecap="round" stroke-linejoin="round"/>
<path d="M169.77 85.9242C169.77 85.9242 166.917 100.289 165.312 104.215C163.708 108.141 172.444 114.297 181.18 114.654C189.916 115.011 189.025 109.925 189.025 109.925L191.61 95.6494C191.61 95.7387 172.89 82.623 169.77 85.9242Z" fill="#F4C2C9"/>
<path d="M173.692 90.2069C172.444 101.092 180.289 106.356 189.025 110.46V109.925L190.451 102.341C183.944 100.2 178.238 95.5603 173.692 90.2069Z" fill="#E26E85"/>
<path d="M132.329 114.743C134.29 108.944 141.778 105.464 147.84 105.999C154.08 106.535 166.025 106.713 177.525 110.282C197.137 116.349 201.862 119.918 203.021 120.989C209.528 127.234 208.904 136.513 205.16 162.12C202.753 178.983 200.703 183.266 201.238 191.564C201.773 199.861 203.288 214.583 204.269 217.617C205.249 220.65 202.753 225.914 200.614 227.788C198.474 229.662 181.18 233.587 165.134 233.23C149.088 232.874 123.86 228.502 119.848 225.825C115.837 223.148 112.984 218.509 113.876 214.494C114.984 208.356 116.412 202.281 118.155 196.292C120.651 187.816 120.829 176.753 124.751 158.997C127.782 145.882 128.228 126.877 132.329 114.743Z" fill="#FFE779"/>
<mask id="mask1_10_2159" style="mask-type:luminance" maskUnits="userSpaceOnUse" x="113" y="105" width="95" height="129">
<path d="M132.329 114.743C134.29 108.944 141.778 105.464 147.84 105.999C154.08 106.535 166.025 106.713 177.525 110.282C197.137 116.349 201.862 119.918 203.021 120.989C209.528 127.234 208.904 136.513 205.16 162.12C202.753 178.983 200.703 183.266 201.238 191.564C201.773 199.861 203.288 214.583 204.269 217.617C205.249 220.65 202.753 225.914 200.614 227.788C198.474 229.662 181.18 233.587 165.134 233.23C149.088 232.874 123.86 228.502 119.848 225.825C115.837 223.148 112.984 218.509 113.876 214.494C114.984 208.356 116.412 202.281 118.155 196.292C120.651 187.816 120.829 176.753 124.751 158.997C127.782 145.882 128.228 126.877 132.329 114.743Z" fill="white"/>
</mask>
<g mask="url(#mask1_10_2159)">
<path d="M186.519 104.638C188.677 103.557 189.997 101.824 189.469 100.766C188.94 99.7087 186.762 99.7272 184.605 100.808C182.447 101.888 181.127 103.621 181.656 104.679C182.184 105.736 184.362 105.718 186.519 104.638Z" fill="#F8AB5D"/>
<path d="M201.308 114.608C203.465 113.528 204.786 111.795 204.257 110.737C203.728 109.68 201.551 109.698 199.393 110.778C197.236 111.859 195.915 113.592 196.444 114.65C196.973 115.707 199.15 115.689 201.308 114.608Z" fill="#F8AB5D"/>
<path d="M200.074 131.762C202.231 130.682 203.552 128.949 203.023 127.891C202.494 126.834 200.317 126.852 198.159 127.932C196.002 129.013 194.681 130.746 195.21 131.804C195.739 132.861 197.916 132.843 200.074 131.762Z" fill="#F8AB5D"/>
<path d="M168.613 113.626C170.771 112.545 172.091 110.812 171.562 109.755C171.034 108.697 168.856 108.715 166.699 109.796C164.541 110.876 163.221 112.609 163.75 113.667C164.278 114.725 166.456 114.706 168.613 113.626Z" fill="#F8AB5D"/>
<path d="M183.319 123.638C185.477 122.557 186.797 120.824 186.268 119.766C185.74 118.709 183.562 118.727 181.405 119.808C179.247 120.888 177.927 122.621 178.455 123.679C178.984 124.736 181.162 124.718 183.319 123.638Z" fill="#F8AB5D"/>
<path d="M150.576 122.576C152.733 121.496 154.054 119.763 153.525 118.705C152.996 117.647 150.819 117.666 148.661 118.746C146.504 119.827 145.183 121.56 145.712 122.617C146.241 123.675 148.418 123.657 150.576 122.576Z" fill="#F8AB5D"/>
<path d="M165.364 132.547C167.522 131.467 168.842 129.734 168.313 128.676C167.785 127.618 165.607 127.637 163.449 128.717C161.292 129.797 159.972 131.531 160.5 132.588C161.029 133.646 163.207 133.628 165.364 132.547Z" fill="#F8AB5D"/>
<path d="M182.119 140.672C184.276 139.592 185.597 137.858 185.068 136.801C184.539 135.743 182.362 135.762 180.204 136.842C178.047 137.922 176.726 139.655 177.255 140.713C177.784 141.771 179.961 141.752 182.119 140.672Z" fill="#F8AB5D"/>
<path d="M196.87 150.774C199.027 149.694 200.347 147.961 199.819 146.903C199.29 145.846 197.112 145.864 194.955 146.944C192.797 148.025 191.477 149.758 192.006 150.816C192.534 151.873 194.712 151.855 196.87 150.774Z" fill="#F8AB5D"/>
<path d="M164.126 149.713C166.284 148.633 167.604 146.9 167.075 145.842C166.547 144.784 164.369 144.803 162.211 145.883C160.054 146.963 158.734 148.697 159.262 149.754C159.791 150.812 161.969 150.794 164.126 149.713Z" fill="#F8AB5D"/>
<path d="M178.914 159.684C181.072 158.604 182.392 156.87 181.864 155.813C181.335 154.755 179.157 154.774 177 155.854C174.842 156.934 173.522 158.668 174.051 159.725C174.579 160.783 176.757 160.764 178.914 159.684Z" fill="#F8AB5D"/>
<path d="M196.035 168.507C198.192 167.427 199.513 165.694 198.984 164.636C198.455 163.579 196.278 163.597 194.12 164.677C191.963 165.758 190.642 167.491 191.171 168.549C191.7 169.606 193.877 169.588 196.035 168.507Z" fill="#F8AB5D"/>
<path d="M210.749 178.519C212.907 177.439 214.227 175.706 213.699 174.648C213.17 173.59 210.992 173.609 208.835 174.689C206.677 175.77 205.357 177.503 205.886 178.561C206.414 179.618 208.592 179.6 210.749 178.519Z" fill="#F8AB5D"/>
<path d="M178.038 177.541C180.196 176.46 181.516 174.727 180.987 173.669C180.459 172.612 178.281 172.63 176.123 173.711C173.966 174.791 172.646 176.524 173.174 177.582C173.703 178.639 175.881 178.621 178.038 177.541Z" fill="#F8AB5D"/>
<path d="M192.834 187.516C194.992 186.436 196.312 184.703 195.784 183.645C195.255 182.588 193.077 182.606 190.92 183.686C188.762 184.767 187.442 186.5 187.971 187.558C188.499 188.615 190.677 188.597 192.834 187.516Z" fill="#F8AB5D"/>
<path d="M209.59 195.636C211.748 194.556 213.068 192.823 212.539 191.765C212.011 190.707 209.833 190.726 207.675 191.806C205.518 192.887 204.198 194.62 204.726 195.677C205.255 196.735 207.433 196.717 209.59 195.636Z" fill="#F8AB5D"/>
<path d="M206.381 214.636C208.538 213.556 209.859 211.823 209.33 210.765C208.801 209.708 206.624 209.726 204.466 210.806C202.309 211.887 200.988 213.62 201.517 214.678C202.046 215.735 204.223 215.717 206.381 214.636Z" fill="#F8AB5D"/>
<path d="M132.48 131.657C134.637 130.576 135.958 128.843 135.429 127.786C134.9 126.728 132.723 126.746 130.565 127.827C128.408 128.907 127.087 130.64 127.616 131.698C128.145 132.756 130.322 132.737 132.48 131.657Z" fill="#F8AB5D"/>
<path d="M147.198 141.673C149.355 140.592 150.675 138.859 150.147 137.801C149.618 136.744 147.44 136.762 145.283 137.843C143.125 138.923 141.805 140.656 142.334 141.714C142.862 142.771 145.04 142.753 147.198 141.673Z" fill="#F8AB5D"/>
<path d="M114.565 140.654C116.722 139.573 118.043 137.84 117.514 136.783C116.985 135.725 114.808 135.743 112.65 136.824C110.493 137.904 109.172 139.637 109.701 140.695C110.23 141.753 112.407 141.734 114.565 140.654Z" fill="#F8AB5D"/>
<path d="M129.284 150.674C131.441 149.593 132.761 147.86 132.233 146.802C131.704 145.745 129.526 145.763 127.369 146.844C125.211 147.924 123.891 149.657 124.42 150.715C124.949 151.772 127.126 151.754 129.284 150.674Z" fill="#F8AB5D"/>
<path d="M146.038 158.79C148.196 157.709 149.516 155.976 148.987 154.918C148.459 153.861 146.281 153.879 144.123 154.96C141.966 156.04 140.646 157.773 141.174 158.831C141.703 159.888 143.881 159.87 146.038 158.79Z" fill="#F8AB5D"/>
<path d="M160.826 168.769C162.984 167.689 164.304 165.956 163.776 164.898C163.247 163.84 161.069 163.859 158.912 164.939C156.754 166.02 155.434 167.753 155.963 168.81C156.491 169.868 158.669 169.85 160.826 168.769Z" fill="#F8AB5D"/>
<path d="M128.124 167.782C130.282 166.701 131.602 164.968 131.073 163.911C130.545 162.853 128.367 162.871 126.209 163.952C124.052 165.032 122.732 166.765 123.26 167.823C123.789 168.881 125.967 168.862 128.124 167.782Z" fill="#F8AB5D"/>
<path d="M142.83 177.794C144.987 176.713 146.308 174.98 145.779 173.922C145.25 172.865 143.073 172.883 140.915 173.964C138.758 175.044 137.437 176.777 137.966 177.835C138.495 178.892 140.672 178.874 142.83 177.794Z" fill="#F8AB5D"/>
<path d="M111.365 159.654C113.522 158.574 114.843 156.84 114.314 155.783C113.785 154.725 111.608 154.743 109.45 155.824C107.293 156.904 105.972 158.637 106.501 159.695C107.03 160.753 109.207 160.734 111.365 159.654Z" fill="#F8AB5D"/>
<path d="M110.127 176.811C112.284 175.731 113.605 173.997 113.076 172.94C112.547 171.882 110.37 171.901 108.212 172.981C106.055 174.061 104.734 175.795 105.263 176.852C105.792 177.91 107.969 177.891 110.127 176.811Z" fill="#F8AB5D"/>
<path d="M124.915 186.791C127.072 185.71 128.393 183.977 127.864 182.919C127.335 181.862 125.158 181.88 123 182.961C120.843 184.041 119.523 185.774 120.051 186.832C120.58 187.89 122.758 187.871 124.915 186.791Z" fill="#F8AB5D"/>
<path d="M142.044 195.614C144.202 194.534 145.522 192.801 144.993 191.743C144.465 190.685 142.287 190.704 140.13 191.784C137.972 192.865 136.652 194.598 137.18 195.655C137.709 196.713 139.887 196.695 142.044 195.614Z" fill="#F8AB5D"/>
<path d="M188.297 223.73C190.454 222.649 191.775 220.916 191.246 219.858C190.717 218.801 188.54 218.819 186.382 219.9C184.225 220.98 182.904 222.713 183.433 223.771C183.962 224.828 186.139 224.81 188.297 223.73Z" fill="#F8AB5D"/>
<path d="M155.546 222.672C157.703 221.592 159.023 219.859 158.495 218.801C157.966 217.744 155.788 217.762 153.631 218.842C151.473 219.923 150.153 221.656 150.682 222.714C151.211 223.771 153.388 223.753 155.546 222.672Z" fill="#F8AB5D"/>
<path d="M170.3 232.763C172.458 231.683 173.778 229.949 173.249 228.892C172.721 227.834 170.543 227.852 168.386 228.933C166.228 230.013 164.908 231.746 165.436 232.804C165.965 233.862 168.143 233.843 170.3 232.763Z" fill="#F8AB5D"/>
<path d="M124.011 204.573C126.168 203.492 127.488 201.759 126.96 200.702C126.431 199.644 124.253 199.662 122.096 200.743C119.938 201.823 118.618 203.556 119.147 204.614C119.676 205.672 121.853 205.653 124.011 204.573Z" fill="#F8AB5D"/>
<path d="M138.795 214.536C140.952 213.455 142.273 211.722 141.744 210.664C141.215 209.607 139.038 209.625 136.88 210.706C134.723 211.786 133.402 213.519 133.931 214.577C134.46 215.634 136.637 215.616 138.795 214.536Z" fill="#F8AB5D"/>
<path d="M120.793 223.577C122.951 222.496 124.271 220.763 123.743 219.706C123.214 218.648 121.036 218.666 118.879 219.747C116.721 220.827 115.401 222.56 115.93 223.618C116.458 224.676 118.636 224.657 120.793 223.577Z" fill="#F8AB5D"/>
<path d="M137.557 231.693C139.714 230.612 141.035 228.879 140.506 227.821C139.977 226.764 137.8 226.782 135.642 227.863C133.485 228.943 132.165 230.676 132.693 231.734C133.222 232.792 135.4 232.773 137.557 231.693Z" fill="#F8AB5D"/>
</g>
<path d="M156.844 180.143C166.758 182.237 176.845 183.402 186.975 183.623C187.634 183.64 188.265 183.893 188.755 184.334C189.245 184.776 189.562 185.378 189.649 186.032C190.139 189.635 191.727 192.999 194.195 195.668C194.426 195.903 194.608 196.182 194.731 196.488C194.853 196.795 194.914 197.122 194.908 197.452C194.998 201.2 195.176 213.869 192.68 215.832C189.827 217.973 159.518 219.936 140.708 214.672C140.11 214.519 139.577 214.175 139.191 213.692C138.805 213.209 138.586 212.614 138.569 211.996C138.658 208.337 138.836 200.664 139.46 195.846C139.548 195.367 139.746 194.916 140.041 194.528C140.335 194.141 140.716 193.828 141.154 193.616C144.096 192.277 150.871 188.709 153.278 182.017C153.565 181.341 154.077 180.785 154.727 180.444C155.377 180.102 156.124 179.996 156.844 180.143Z" stroke="#F8AB5D" stroke-width="1.8" stroke-linecap="round" stroke-linejoin="round"/>
<path d="M164.153 102.073C164.245 101.871 164.384 101.693 164.558 101.555C164.731 101.417 164.936 101.322 165.153 101.279C165.371 101.235 165.596 101.244 165.81 101.305C166.023 101.365 166.22 101.476 166.382 101.627C168.076 103.412 171.731 106.089 178.327 107.338C188.401 109.211 189.381 107.695 189.381 107.695C189.381 107.695 190.986 108.23 191.164 109.568C191.217 111.732 190.977 113.893 190.451 115.992C189.916 117.687 182.428 117.866 176.455 116.617C171.178 115.649 166.307 113.133 162.46 109.39C162.156 109.096 161.95 108.716 161.87 108.3C161.79 107.885 161.84 107.455 162.014 107.07C162.549 105.732 163.44 103.769 164.153 102.073Z" fill="#6DAFA7"/>
<path d="M208.102 68.9719C208.189 72.7962 207.585 76.6047 206.319 80.2139C204.536 84.8535 201.594 97.7908 195.8 101.984C190.005 106.178 177.347 105.375 171.82 94.5788C166.293 83.7829 168.076 72.4516 170.928 63.3509C173.781 54.2502 185.548 50.949 195.8 54.6963C206.052 58.4437 208.102 64.9569 208.102 68.9719Z" fill="#F4C2C9"/>
<path d="M170.661 75.2175C171.269 76.0155 171.778 76.8843 172.176 77.8049C172.979 79.6786 174.673 78.6079 175.297 75.2175C175.921 71.827 177.347 69.418 178.417 69.5964C179.791 69.9252 181.235 69.7777 182.514 69.1781C183.794 68.5784 184.832 67.5621 185.459 66.2952C187.688 62.191 188.668 62.8155 188.668 62.8155C188.668 62.8155 190.451 58.5329 195.087 64.6892C199.722 70.8456 202.664 75.6636 208.191 74.6821C213.718 73.7007 218.621 64.6892 214.431 56.0346C210.241 47.3801 197.048 45.3279 187.242 47.9154C177.436 50.5028 172.355 48.3615 166.471 53.358C160.588 58.3544 162.014 63.6185 161.657 69.5072C161.301 75.3959 158.27 78.5187 162.281 83.7828C166.293 89.0469 165.223 93.9542 167.452 96.8985C167.452 96.8985 169.859 89.1362 169.591 83.5152C169.324 77.8941 170.661 75.2175 170.661 75.2175Z" fill="#22272E"/>
<path d="M197.137 80.1248C197.073 82.3679 196.148 84.5003 194.555 86.0788C192.961 87.6572 190.821 88.5605 188.579 88.6009C187.463 88.592 186.359 88.3594 185.334 87.9169C184.309 87.4743 183.382 86.8307 182.61 86.024C181.837 85.2174 181.234 84.264 180.835 83.2202C180.436 82.1763 180.251 81.0632 180.289 79.9463C180.282 78.7919 180.502 77.6474 180.938 76.5783C181.373 75.5093 182.015 74.5367 182.826 73.7163C183.638 72.8958 184.603 72.2436 185.667 71.7969C186.73 71.3503 187.871 71.118 189.025 71.1133C190.153 71.1586 191.261 71.4292 192.283 71.9093C193.305 72.3894 194.221 73.0693 194.977 73.9089C195.733 74.7486 196.314 75.731 196.685 76.7985C197.055 77.866 197.209 78.9969 197.137 80.1248Z" stroke="#22272E" stroke-width="1.8" stroke-linecap="round" stroke-linejoin="round"/>
<path d="M210.887 85.409C212.126 81.1511 210.716 76.9955 207.738 76.1274C204.76 75.2592 201.342 78.0071 200.102 82.265C198.863 86.5229 200.273 90.6784 203.251 91.5466C206.229 92.4148 209.647 89.6669 210.887 85.409Z" stroke="#22272E" stroke-width="1.8" stroke-linecap="round" stroke-linejoin="round"/>
<path d="M200.257 81.9984C200.257 81.9984 200.168 80.2139 197.048 81.1954" stroke="#22272E" stroke-width="1.8" stroke-linecap="round" stroke-linejoin="round"/>
<path d="M181.002 76.2882L170.661 74.4145" stroke="#22272E" stroke-width="1.8" stroke-linecap="round" stroke-linejoin="round"/>
<path d="M171.552 76.8235C171.552 76.8235 170.75 72.0947 166.917 72.0055C163.084 71.9163 160.766 83.6937 170.304 85.2997" fill="#F4C2C9"/>
<path d="M166.293 75.6636C166.737 75.5498 167.206 75.5742 167.636 75.7336C168.066 75.893 168.437 76.1798 168.7 76.5558C168.953 77.02 169.076 77.5441 169.056 78.0726C169.056 78.3403 168.967 78.5187 168.967 78.7864C168.967 79.054 168.878 79.1433 168.878 79.3217C168.809 79.6138 168.779 79.9139 168.789 80.2139C168.77 80.3248 168.776 80.4384 168.807 80.5466C168.838 80.6547 168.893 80.7545 168.967 80.8385C169.447 81.3594 170.022 81.7834 170.661 82.0876C170.238 82.2402 169.785 82.2954 169.338 82.249C168.89 82.2027 168.459 82.056 168.076 81.8199C167.648 81.4925 167.361 81.0138 167.274 80.4816C167.211 80.0044 167.241 79.5197 167.363 79.0541C167.452 78.8756 167.452 78.6079 167.541 78.4295C167.63 78.251 167.63 78.1618 167.63 77.9834C167.72 77.7539 167.72 77.4991 167.63 77.2696C167.534 76.9223 167.365 76.5996 167.134 76.3227C166.903 76.0458 166.617 75.8212 166.293 75.6636Z" fill="#22272E"/>
<path d="M199.009 80.5709C199.07 81.5779 199.28 82.5702 199.633 83.5152C199.787 83.9287 199.997 84.3189 200.257 84.6751C200.631 85.1164 200.905 85.634 201.059 86.1919C201.202 86.7888 201.212 87.4098 201.089 88.011C200.966 88.6123 200.712 89.1791 200.346 89.6716C200.021 90.1458 199.595 90.5419 199.098 90.8314C198.627 91.1532 198.063 91.3101 197.494 91.2776C198.283 90.6967 198.874 89.8868 199.187 88.9578C199.534 88.2048 199.628 87.3596 199.455 86.5488C199.298 86.1368 199.088 85.7469 198.831 85.3889C198.559 84.8576 198.379 84.2846 198.296 83.6936C198.256 82.6081 198.502 81.5312 199.009 80.5709Z" fill="#22272E"/>
<path d="M190.095 94.7572C188.847 94.7115 187.637 94.3204 186.598 93.6274C185.559 92.9343 184.733 91.9664 184.211 90.8314" stroke="#22272E" stroke-width="1.8" stroke-linecap="round" stroke-linejoin="round"/>
<path d="M186.44 81.8199C186.27 81.7791 186.11 81.7051 185.968 81.6023C185.827 81.4994 185.708 81.3697 185.617 81.2205C185.525 81.0713 185.465 80.9056 185.438 80.7329C185.411 80.5602 185.418 80.3838 185.459 80.2139L185.816 78.8756C185.856 78.7056 185.93 78.5453 186.033 78.404C186.136 78.2626 186.266 78.1429 186.415 78.0517C186.564 77.9606 186.729 77.8997 186.902 77.8727C187.074 77.8456 187.251 77.8529 187.42 77.8942C187.59 77.935 187.75 78.0089 187.892 78.1118C188.033 78.2147 188.152 78.3444 188.243 78.4936C188.335 78.6428 188.395 78.8084 188.422 78.9812C188.449 79.1539 188.442 79.3303 188.401 79.5002L188.044 80.8385C188.004 81.0085 187.93 81.1688 187.827 81.3101C187.724 81.4515 187.594 81.5712 187.445 81.6624C187.296 81.7535 187.131 81.8144 186.958 81.8414C186.786 81.8685 186.609 81.8611 186.44 81.8199Z" fill="#22272E"/>
<path d="M200.614 85.4781C200.444 85.4373 200.284 85.3633 200.143 85.2604C200.001 85.1576 199.882 85.0278 199.791 84.8787C199.7 84.7295 199.639 84.5638 199.612 84.3911C199.585 84.2183 199.592 84.042 199.633 83.8721L199.99 82.5337C200.03 82.3637 200.104 82.2035 200.207 82.0621C200.31 81.9207 200.44 81.8011 200.589 81.7099C200.738 81.6187 200.903 81.5579 201.076 81.5308C201.248 81.5038 201.425 81.5111 201.594 81.5523C201.764 81.5931 201.924 81.6671 202.066 81.77C202.207 81.8728 202.326 82.0025 202.417 82.1517C202.509 82.3009 202.569 82.4666 202.596 82.6393C202.623 82.812 202.616 82.9884 202.575 83.1583L202.218 84.4966C202.178 84.6666 202.104 84.8269 202.001 84.9683C201.898 85.1096 201.768 85.2293 201.619 85.3205C201.47 85.4117 201.305 85.4725 201.132 85.4995C200.96 85.5266 200.783 85.5193 200.614 85.4781Z" fill="#22272E"/>
<path d="M190.005 75.6636C189.025 75.8421 188.579 74.5037 187.153 74.593C184.924 74.6822 183.676 75.1283 183.498 74.1468C183.409 73.4331 185.102 72.0947 187.242 72.0055C190.362 72.0055 191.788 75.396 190.005 75.6636Z" fill="#22272E"/>
<path d="M200.614 78.3402C201.238 78.8756 202.129 77.8941 203.021 78.5187C204.358 79.3217 204.804 80.0355 205.249 79.4109C205.695 78.7864 205.249 77.2696 204.001 76.4666C201.951 75.039 199.277 77.3588 200.614 78.3402Z" fill="#22272E"/>
<path d="M88.2912 227.52C87.6906 228.787 87.2993 230.143 87.1323 231.535C87.1323 233.052 88.3803 247.06 88.0238 249.826C87.6672 252.592 86.7757 258.034 86.2409 258.837C85.706 259.64 82.4968 257.142 82.4076 248.755C82.3185 240.368 79.4658 228.859 81.8727 227.52C84.2797 226.182 87.578 226.45 88.2912 227.52Z" fill="#F4C2C9"/>
<path d="M29.9012 268.92L51.296 235.193C51.5328 234.821 51.8416 234.499 52.2042 234.248C52.5668 233.996 52.976 233.819 53.4077 233.728C53.8394 233.636 54.285 233.632 54.7184 233.715C55.1518 233.798 55.5642 233.967 55.9315 234.212L106.298 266.243C106.671 266.48 106.992 266.789 107.243 267.152C107.495 267.515 107.672 267.924 107.763 268.356C107.854 268.788 107.858 269.234 107.775 269.668C107.692 270.102 107.523 270.515 107.279 270.882L85.8842 304.609C85.6474 304.981 85.3386 305.303 84.976 305.554C84.6134 305.806 84.2042 305.983 83.7725 306.074C83.3408 306.166 82.8952 306.17 82.4618 306.087C82.0285 306.004 81.616 305.835 81.2487 305.59L30.8818 273.559C30.1467 273.066 29.6329 272.305 29.4497 271.439C29.2666 270.572 29.4286 269.668 29.9012 268.92Z" fill="#22272E"/>
<path d="M89.0043 294.705L99.7016 277.931C99.8127 277.751 99.9661 277.601 100.148 277.494C100.331 277.387 100.537 277.327 100.748 277.318C100.959 277.309 101.169 277.352 101.36 277.444C101.55 277.535 101.716 277.672 101.841 277.842L103.535 280.072C103.702 280.286 103.799 280.546 103.815 280.817C103.831 281.088 103.765 281.357 103.624 281.589L93.9964 296.757C93.8677 296.985 93.665 297.163 93.4219 297.26C93.1787 297.357 92.9097 297.369 92.6592 297.292L89.8957 296.757C89.6879 296.702 89.4953 296.6 89.3323 296.46C89.1693 296.319 89.0401 296.144 88.9544 295.947C88.8686 295.749 88.8286 295.535 88.8372 295.32C88.8459 295.105 88.903 294.895 89.0043 294.705Z" fill="#6DAFA7"/>
<path d="M85.8843 226.628C85.8843 226.628 85.3494 242.153 85.2603 245.454C85.1711 248.755 85.3494 255.268 84.5471 258.391C83.7448 261.514 82.4076 269.366 80.0007 269.901C77.5938 270.436 80.179 260.265 80.179 258.302C79.9832 256.049 79.6257 253.812 79.1093 251.61C79.1093 251.61 78.2178 256.518 77.5938 258.659C76.9698 260.8 72.8691 267.492 71.2645 267.224C69.6599 266.957 71.6211 261.96 72.8691 258.927C74.028 256.161 74.4737 250.361 74.4737 250.361C73.7786 252.134 72.9747 253.862 72.0668 255.536C70.9971 257.321 67.3421 262.852 65.8267 262.585C64.3112 262.317 66.8073 256.696 68.3227 254.109C69.181 252.759 69.7291 251.235 69.9273 249.647C69.9273 249.647 67.5204 252.056 66.005 253.216C64.4895 254.376 59.1408 256.964 58.6951 255.625C58.2493 254.287 60.6563 252.859 62.8849 250.807C65.1135 248.755 67.5204 244.651 68.0553 243.937C68.5902 243.223 67.0747 236.978 69.4816 232.784C71.8885 228.591 73.3148 226.896 73.9388 224.041C74.5629 221.185 85.6168 224.576 85.8843 226.628Z" fill="#F4C2C9"/>
<path d="M141.6 105.999C141.6 105.999 131.437 105.018 119.224 120.364C107.012 135.71 94.977 148.558 91.5895 154.625C88.202 160.693 80.7138 183.444 76.9698 201.378C73.2257 219.312 72.8691 222.524 72.9582 224.487C73.0474 226.271 82.051 228.769 87.9346 228.68C88.4516 228.691 88.9595 228.542 89.3898 228.255C89.8201 227.968 90.1522 227.556 90.3415 227.074C92.6593 221.632 100.771 203.073 103.981 196.292C107.725 188.352 112.093 176.574 112.628 175.771C113.163 174.968 137.499 150.164 142.046 143.651C146.592 137.138 150.96 126.61 149.979 117.331C148.91 107.248 143.739 105.91 141.6 105.999Z" fill="#6DAFA7"/>
<path d="M92.8376 152.573C92.8376 152.573 95.6011 148.737 99.0777 152.216C102.733 155.875 101.128 163.815 96.0468 168.812C91.857 172.916 85.8843 171.221 86.4191 167.384" stroke="#22272E" stroke-width="1.8" stroke-linecap="round" stroke-linejoin="round"/>
<path d="M74.2062 220.204C76.6132 221.364 83.8339 224.576 90.8763 223.684" stroke="#22272E" stroke-width="1.8" stroke-linecap="round" stroke-linejoin="round"/>
<path d="M307.588 245.543L322.564 196.471C322.782 195.817 323.202 195.249 323.762 194.848C324.323 194.448 324.995 194.235 325.684 194.24L414.294 196.739C414.639 196.742 414.978 196.825 415.286 196.981C415.593 197.137 415.861 197.362 416.068 197.638C416.275 197.914 416.415 198.234 416.479 198.573C416.542 198.912 416.527 199.261 416.434 199.594L399.05 259.462C398.84 260.193 398.372 260.822 397.732 261.233C397.092 261.643 396.325 261.807 395.574 261.693L309.549 248.398C309.215 248.38 308.889 248.286 308.598 248.122C308.306 247.958 308.056 247.73 307.866 247.454C307.677 247.178 307.553 246.862 307.505 246.531C307.456 246.2 307.485 245.862 307.588 245.543Z" fill="#22272E"/>
<path d="M306.785 248.042L255.26 252.86L343.602 274.63C345.738 275.166 347.974 275.166 350.11 274.63L398.07 262.228L306.785 248.042Z" fill="#63737A"/>
<path d="M343.691 274.63L255.349 252.859C255.355 253.675 255.628 254.467 256.128 255.111C256.627 255.756 257.324 256.219 258.112 256.428L341.373 278.556C344.888 279.478 348.589 279.417 352.071 278.377L395.752 265.529C396.483 265.319 397.125 264.872 397.576 264.259C398.028 263.646 398.264 262.9 398.248 262.139L350.288 274.541C348.135 275.148 345.86 275.179 343.691 274.63Z" fill="#22272E"/>
<path d="M365.799 205.125L359.559 226.36C359.468 226.619 359.299 226.844 359.076 227.003C358.852 227.163 358.585 227.25 358.311 227.253L323.277 224.219C323.1 224.206 322.929 224.153 322.775 224.066C322.621 223.978 322.488 223.858 322.385 223.713C322.283 223.568 322.214 223.402 322.184 223.227C322.153 223.053 322.161 222.873 322.207 222.702L328.091 203.252C328.163 202.999 328.315 202.775 328.524 202.615C328.732 202.454 328.987 202.365 329.25 202.359L364.64 203.609C364.823 203.614 365.002 203.66 365.164 203.744C365.327 203.827 365.469 203.946 365.58 204.091C365.691 204.237 365.768 204.405 365.806 204.584C365.844 204.762 365.842 204.948 365.799 205.125Z" fill="white"/>
<path d="M359.113 208.962L355.191 221.721L327.913 219.758L328.893 216.903L338.967 212.442L344.672 216.903L359.113 208.962Z" fill="#F4C2C9"/>
<path d="M338.699 235.015L336.114 243.045C336.022 243.316 335.838 243.545 335.593 243.693C335.348 243.84 335.059 243.895 334.777 243.848L317.928 241.617C317.755 241.601 317.588 241.546 317.44 241.456C317.291 241.365 317.165 241.243 317.071 241.097C316.976 240.951 316.916 240.785 316.895 240.613C316.874 240.44 316.892 240.265 316.948 240.101L319.176 232.606C319.268 232.347 319.437 232.123 319.66 231.963C319.883 231.803 320.15 231.716 320.424 231.714L337.629 233.498C337.814 233.491 337.997 233.53 338.162 233.612C338.327 233.693 338.47 233.815 338.576 233.966C338.682 234.116 338.749 234.291 338.771 234.475C338.792 234.658 338.768 234.844 338.699 235.015Z" fill="#FFE779"/>
<path d="M365.086 237.692L362.233 246.525C362.142 246.796 361.957 247.025 361.712 247.172C361.467 247.319 361.178 247.374 360.896 247.328L344.85 245.186C344.671 245.164 344.499 245.101 344.347 245.003C344.196 244.905 344.068 244.774 343.974 244.619C343.88 244.465 343.821 244.292 343.803 244.112C343.785 243.932 343.808 243.75 343.869 243.58L346.544 235.283C346.625 235.024 346.795 234.802 347.023 234.655C347.251 234.508 347.523 234.446 347.792 234.48L364.016 236.086C364.203 236.096 364.385 236.149 364.548 236.242C364.711 236.335 364.849 236.464 364.953 236.62C365.057 236.776 365.123 236.954 365.146 237.14C365.169 237.326 365.149 237.515 365.086 237.692Z" fill="#6DAFA7"/>
<path d="M395.395 240.725L392.364 250.54C392.273 250.811 392.088 251.04 391.843 251.187C391.598 251.334 391.309 251.389 391.027 251.343L371.683 248.755C371.504 248.733 371.332 248.67 371.18 248.572C371.028 248.474 370.901 248.343 370.807 248.188C370.712 248.034 370.654 247.861 370.636 247.681C370.618 247.501 370.641 247.319 370.702 247.149L373.644 237.959C373.725 237.7 373.895 237.478 374.123 237.332C374.351 237.185 374.623 237.123 374.892 237.156L394.236 239.119C394.428 239.123 394.617 239.171 394.787 239.261C394.957 239.35 395.104 239.477 395.216 239.633C395.328 239.789 395.403 239.968 395.434 240.158C395.465 240.347 395.452 240.542 395.395 240.725Z" fill="#F4C2C9"/>
<path d="M384.965 209.408C384.615 210.739 383.825 211.912 382.725 212.738C381.625 213.564 380.278 213.994 378.904 213.958C376.318 213.78 374.981 211.549 375.694 209.051C376.088 207.861 376.838 206.82 377.843 206.07C378.847 205.32 380.058 204.897 381.31 204.858C381.877 204.835 382.441 204.946 382.958 205.181C383.474 205.416 383.928 205.768 384.284 206.211C384.639 206.653 384.886 207.173 385.004 207.728C385.123 208.284 385.109 208.859 384.965 209.408Z" fill="#FFE779"/>
<path d="M391.295 206.464L404.31 206.91" stroke="#63737A" stroke-width="1.8" stroke-linecap="round" stroke-linejoin="round"/>
<path d="M370.97 223.416L398.872 225.379" stroke="#63737A" stroke-width="1.8" stroke-linecap="round" stroke-linejoin="round"/>
<path d="M389.779 211.728L402.794 212.263" stroke="#63737A" stroke-width="1.8" stroke-linecap="round" stroke-linejoin="round"/>
<path d="M461.184 78.4295L393.434 83.6936C393.029 83.7198 392.624 83.6593 392.244 83.5162C391.864 83.373 391.52 83.1504 391.233 82.8633C390.946 82.5762 390.723 82.2312 390.58 81.8513C390.437 81.4713 390.377 81.0652 390.403 80.66L393.256 41.4914C393.336 40.3557 393.806 39.2827 394.586 38.4536C395.365 37.6245 396.407 37.0902 397.535 36.941L466.355 27.5727C466.773 27.5204 467.198 27.5615 467.599 27.6928C468 27.8242 468.367 28.0426 468.673 28.3325C468.98 28.6224 469.219 28.9765 469.373 29.3696C469.527 29.7627 469.592 30.185 469.564 30.6062L465.731 73.9684C465.602 75.1222 465.079 76.1963 464.251 77.0091C463.423 77.8219 462.339 78.3236 461.184 78.4295Z" fill="#6DAFA7"/>
<path d="M458.956 77.0019L391.205 82.2661C390.801 82.2923 390.395 82.2318 390.015 82.0886C389.636 81.9454 389.291 81.7229 389.004 81.4358C388.717 81.1487 388.495 80.8036 388.352 80.4237C388.209 80.0438 388.148 79.6377 388.175 79.2325L391.027 40.0638C391.108 38.9282 391.577 37.8551 392.357 37.0261C393.137 36.197 394.178 35.6627 395.306 35.5135L464.126 26.1451C464.545 26.0929 464.97 26.1339 465.37 26.2653C465.771 26.3966 466.138 26.6151 466.445 26.905C466.752 27.1948 466.99 27.549 467.144 27.9421C467.298 28.3352 467.363 28.7574 467.335 29.1787L463.502 72.5408C463.404 73.7063 462.891 74.7977 462.057 75.6165C461.222 76.4353 460.122 76.9269 458.956 77.0019Z" fill="#B0D7C0"/>
<path d="M413.848 50.7705C413.723 52.1035 413.154 53.3556 412.232 54.3263C411.311 55.297 410.091 55.93 408.767 56.1239C408.187 56.2 407.597 56.1416 407.044 55.9533C406.49 55.765 405.987 55.4517 405.573 55.0378C405.16 54.6239 404.847 54.1203 404.659 53.566C404.47 53.0118 404.412 52.4216 404.488 51.8412C404.594 50.5159 405.145 49.2655 406.052 48.2935C406.958 47.3215 408.166 46.6851 409.48 46.4879C412.154 46.131 414.027 48.0939 413.848 50.7705Z" fill="#22272E"/>
<path d="M412.511 67.8121L403.24 68.7043C402.775 68.7544 402.305 68.6981 401.865 68.5396C401.425 68.3811 401.027 68.1245 400.7 67.7893C400.374 67.4541 400.128 67.049 399.981 66.6047C399.834 66.1604 399.79 65.6885 399.853 65.2246C400.082 62.8588 401.091 60.6365 402.721 58.908C404.351 57.1795 406.51 56.0431 408.856 55.6778C413.492 55.1425 417.058 58.7114 416.612 63.6186C416.498 64.677 416.032 65.6664 415.288 66.4272C414.544 67.1879 413.566 67.6758 412.511 67.8121Z" fill="#22272E"/>
<path d="M424.813 45.9525L453.696 42.5621" stroke="#63737A" stroke-width="1.8" stroke-linecap="round" stroke-linejoin="round"/>
<path d="M424.1 53.8934L452.983 50.7706" stroke="#63737A" stroke-width="1.8" stroke-linecap="round" stroke-linejoin="round"/>
<path d="M423.476 61.8342L440.859 60.1389" stroke="#63737A" stroke-width="1.8" stroke-linecap="round" stroke-linejoin="round"/>
<path d="M384.341 8.83594C380.865 5.35626 375.962 3.30415 369.9 2.59037C365.876 1.9962 361.765 2.55294 358.044 4.19637C353.765 6.07004 350.555 9.37127 348.148 14.1893L344.137 15.8845L346.455 18.2935L356.885 20.1672C357.603 17.9086 358.857 15.8575 360.54 14.1893C362.323 12.4048 364.729 11.6911 367.76 12.1372C370.791 12.5833 372.842 13.7432 373.644 15.6168C374.446 17.513 374.541 19.6344 373.911 21.5948C373.37 23.4272 372.319 25.0675 370.88 26.3235C369.977 27.1294 368.954 27.7914 367.849 28.2864L364.284 30.0709C360.807 31.7661 358.489 33.3721 357.33 34.9781C356.181 36.7621 355.253 38.6797 354.567 40.6884L351.001 41.8483L353.319 44.2573L364.016 47.2016C364.429 45.4793 365.089 43.8262 365.977 42.2944C367.05 40.6225 368.604 39.3158 370.435 38.547L374.09 36.8518C376.949 35.6507 379.645 34.0917 382.113 32.2122C384.854 29.8783 386.763 26.7154 387.551 23.2008C389.066 17.3121 387.996 12.4941 384.341 8.83594Z" fill="#F8AB5D"/>
<path d="M357.063 50.6813L356.706 50.5921C355.933 50.3933 355.128 50.3515 354.339 50.4694C353.55 50.5872 352.792 50.8621 352.11 51.278C351.429 51.6939 350.838 52.2422 350.372 52.8906C349.906 53.539 349.574 54.2744 349.397 55.0532C348.894 56.6286 349.011 58.3364 349.723 59.8285C350.436 61.3206 351.69 62.4847 353.23 63.0833L353.586 63.2617C356.796 64.3324 360.183 62.3695 361.164 58.8006C362.144 55.2317 360.272 51.5736 357.063 50.6813Z" fill="#F8AB5D"/>
<path d="M355.815 1.78739C359.56 0.230017 363.647 -0.32351 367.671 0.181382C373.733 0.895162 378.547 2.94728 382.113 6.42696C385.678 9.90663 386.837 14.9031 385.233 20.9702C384.422 24.4755 382.517 27.6316 379.795 29.9817C378.279 31.32 375.605 32.8368 371.772 34.6213L368.117 36.3165C366.286 37.0853 364.732 38.392 363.66 40.0638C362.826 41.6217 362.168 43.2676 361.699 44.9711L351.001 42.0267C352.517 37.3872 353.765 34.3536 355.013 32.7476C356.261 31.1416 358.489 29.5356 361.966 27.8404L365.532 26.0559C366.63 25.5495 367.651 24.8885 368.563 24.093C370.048 22.8782 371.11 21.2222 371.594 19.3642C372.136 17.3931 372.042 15.301 371.326 13.3863C370.613 11.5126 368.563 10.3528 365.443 9.90664C362.323 9.46053 360.005 10.1743 358.222 11.9587C356.503 13.598 355.243 15.659 354.567 17.9367L344.137 16.063C346.633 8.83596 350.377 4.1964 355.815 1.78739ZM354.656 49.2537L355.013 49.343C356.605 49.8858 357.923 51.0276 358.688 52.5265C359.454 54.0254 359.606 55.7636 359.113 57.373C358.133 60.9419 354.656 62.9048 351.536 61.8341L351.179 61.6557C349.639 61.0571 348.385 59.8931 347.673 58.4009C346.961 56.9088 346.844 55.201 347.346 53.6257C347.737 52.0764 348.727 50.7458 350.097 49.9262C351.468 49.1065 353.108 48.8646 354.656 49.2537Z" fill="#FFE779"/>
<path d="M113.252 56.8377H147.483L150.96 59.0682C151.214 59.2327 151.509 59.3251 151.811 59.3356C152.114 59.3461 152.414 59.2744 152.679 59.1279C152.944 58.9815 153.165 58.7659 153.317 58.504C153.47 58.2421 153.549 57.9438 153.545 57.6407V33.4614C153.545 32.2782 153.076 31.1435 152.24 30.3069C151.404 29.4703 150.27 29.0002 149.088 29.0002H113.252C112.07 29.0002 110.936 29.4703 110.1 30.3069C109.264 31.1435 108.794 32.2782 108.794 33.4614V52.3765C108.794 53.5597 109.264 54.6944 110.1 55.531C110.936 56.3676 112.07 56.8377 113.252 56.8377Z" fill="#F4C2C9"/>
<path d="M142.491 36.941H119.67" stroke="#22272E" stroke-width="1.8" stroke-linecap="round" stroke-linejoin="round"/>
<path d="M142.491 43.1866H119.67" stroke="#22272E" stroke-width="1.8" stroke-linecap="round" stroke-linejoin="round"/>
<path d="M142.491 49.4322H129.387" stroke="#22272E" stroke-width="1.8" stroke-linecap="round" stroke-linejoin="round"/>
</svg>
